<svg width="111" height="33" viewBox="0 0 111 33" fill="none" xmlns="http://www.w3.org/2000/svg">
<path d="M24.336 0.196C24.552 0.196 24.696 0.291999 24.768 0.483998C24.84 0.651999 24.792 0.795999 24.624 0.915999C23.184 1.996 22.464 3.244 22.464 4.66V11.464V21.04C22.464 22.456 22.668 23.584 23.076 24.424C23.148 24.568 23.136 24.7 23.04 24.82C22.944 24.94 22.812 25 22.644 25H16.452C16.308 25 16.188 24.964 16.092 24.892C16.02 24.796 15.984 24.688 15.984 24.568C16.056 23.68 15.792 22.78 15.192 21.868L4.104 5.416V20.572C4.104 21.988 4.812 23.224 6.228 24.28C6.396 24.4 6.444 24.556 6.372 24.748C6.3 24.916 6.156 25 5.94 25H0.612C0.396 25 0.252 24.916 0.18 24.748C0.108 24.556 0.144 24.4 0.288 24.28C1.776 23.08 2.544 21.832 2.592 20.536V13.732V4.84C2.592 3.064 2.352 1.732 1.872 0.844C1.8 0.699999 1.8 0.567998 1.872 0.447999C1.968 0.303999 2.1 0.231999 2.268 0.231999H8.316C8.412 0.231999 8.496 0.267999 8.568 0.339998C8.664 0.387999 8.724 0.459999 8.748 0.555999C8.772 0.627998 8.772 0.699998 8.748 0.771999C8.388 1.684 8.472 2.728 9 3.904L20.952 21.688C20.952 21.616 20.952 21.532 20.952 21.436V4.66C20.928 3.364 20.172 2.116 18.684 0.915999C18.516 0.795999 18.468 0.651999 18.54 0.483998C18.636 0.291999 18.78 0.196 18.972 0.196H24.336ZM41.5077 24.352C41.5797 24.496 41.5677 24.64 41.4717 24.784C41.3757 24.928 41.2317 25 41.0397 25H35.8197C35.6277 25 35.4717 24.928 35.3517 24.784C35.2557 24.64 35.2437 24.496 35.3157 24.352C35.5797 23.776 35.7597 23.032 35.8557 22.12V21.904L35.8197 21.976C34.8357 23.824 33.0957 24.82 30.5997 24.964C30.5277 24.964 30.4077 24.964 30.2397 24.964C29.8797 24.964 29.5197 24.928 29.1597 24.856C28.7997 24.76 28.3677 24.604 27.8637 24.388C27.3597 24.172 26.9037 23.824 26.4957 23.344C26.0877 22.864 25.7877 22.276 25.5957 21.58C25.4757 20.908 25.4157 19.828 25.4157 18.34V14.812V13.84V13.876C25.4157 13.852 25.4157 13.84 25.4157 13.84V13.696C25.3917 12.28 25.1637 11.164 24.7317 10.348C24.6597 10.204 24.6597 10.072 24.7317 9.952C24.8037 9.808 24.9237 9.712 25.0917 9.664C26.5797 9.328 28.0677 8.704 29.5557 7.792C29.7477 7.696 29.9397 7.696 30.1317 7.792C30.3237 7.864 30.4197 7.996 30.4197 8.188V12.4V20.212C30.4197 20.26 30.4317 20.38 30.4557 20.572C30.4797 20.764 30.5397 21.052 30.6357 21.436C30.7557 21.796 30.8997 22.12 31.0677 22.408C31.2597 22.696 31.5357 22.936 31.8957 23.128C32.2557 23.32 32.6757 23.38 33.1557 23.308C34.3317 23.092 35.2317 22.024 35.8557 20.104V13.84V13.876C35.8557 13.852 35.8557 13.84 35.8557 13.84V13.696C35.8317 12.28 35.6157 11.164 35.2077 10.348C35.1357 10.204 35.1357 10.072 35.2077 9.952C35.2797 9.808 35.3997 9.712 35.5677 9.664C37.0557 9.328 38.5437 8.704 40.0317 7.792C40.1997 7.696 40.3797 7.696 40.5717 7.792C40.7637 7.864 40.8597 7.996 40.8597 8.188V9.808L40.9317 20.968C40.9317 20.968 40.9317 20.992 40.9317 21.04C40.9317 21.064 40.9317 21.112 40.9317 21.184C40.9317 21.256 40.9317 21.34 40.9317 21.436C40.9317 21.532 40.9317 21.652 40.9317 21.796C40.9557 21.916 40.9677 22.048 40.9677 22.192C40.9917 22.312 41.0157 22.456 41.0397 22.624C41.0637 22.768 41.0877 22.912 41.1117 23.056C41.2077 23.56 41.3397 23.992 41.5077 24.352ZM58.8153 22.516C59.9193 22.9 60.7353 23.596 61.2633 24.604C61.7913 25.588 61.9473 26.608 61.7313 27.664C61.6593 27.952 61.5633 28.228 61.4433 28.492C60.8193 29.884 59.6433 30.928 57.9153 31.624C56.1873 32.344 54.3753 32.704 52.4793 32.704C51.0393 32.704 49.6833 32.5 48.4113 32.092C46.7313 31.588 45.3753 30.82 44.3433 29.788C43.3113 28.756 42.7953 27.616 42.7953 26.368C42.7953 25.36 43.1553 24.4 43.8753 23.488C43.5633 22.96 43.3713 22.408 43.2993 21.832C43.2993 21.784 43.2993 21.76 43.2993 21.76C43.2273 20.752 43.6233 19.708 44.4873 18.628C44.7273 18.34 45.0033 18.04 45.3153 17.728C43.9713 16.576 43.3113 15.268 43.3353 13.804C43.3593 12.292 44.1033 10.972 45.5673 9.844C47.0553 8.716 48.8913 8.044 51.0753 7.828C51.5793 6.988 52.2033 6.268 52.9473 5.668C53.6913 5.068 54.4233 4.636 55.1433 4.372C55.8873 4.084 56.4873 3.892 56.9433 3.796C57.4233 3.676 57.8553 3.604 58.2393 3.58C58.3113 3.556 58.3833 3.544 58.4553 3.544H58.4913C58.5153 3.544 58.5393 3.544 58.5633 3.544C59.2593 3.544 59.8593 3.748 60.3633 4.156C60.8673 4.564 61.1193 5.056 61.1193 5.632C61.1193 6.208 60.8673 6.7 60.3633 7.108C59.8593 7.516 59.2593 7.72 58.5633 7.72C57.9393 7.72 57.3873 7.564 56.9073 7.252C56.4513 6.94 56.1633 6.544 56.0433 6.064C54.4353 6.064 53.1633 6.628 52.2273 7.756C52.3713 7.756 52.4913 7.756 52.5873 7.756C55.1313 7.78 57.2793 8.416 59.0313 9.664C60.7833 10.888 61.6353 12.352 61.5873 14.056C61.5633 15.76 60.6393 17.2 58.8153 18.376C57.0153 19.552 54.8553 20.128 52.3353 20.104C50.5113 20.08 48.8313 19.708 47.2953 18.988C47.2713 19.18 47.2833 19.372 47.3313 19.564C47.3553 19.732 47.4033 19.9 47.4753 20.068C47.5473 20.236 47.6313 20.392 47.7273 20.536C47.8473 20.68 47.9793 20.812 48.1233 20.932C48.2673 21.052 48.4113 21.16 48.5553 21.256C48.7233 21.352 48.9033 21.436 49.0953 21.508C49.6473 21.748 50.4873 21.88 51.6153 21.904C52.1673 21.904 52.7673 21.904 53.4153 21.904C54.0633 21.904 54.6753 21.916 55.2513 21.94C55.8273 21.94 56.4273 21.988 57.0513 22.084C57.6993 22.18 58.2873 22.324 58.8153 22.516ZM48.3393 13.876C48.3393 14.5 48.4113 15.112 48.5553 15.712C48.6273 16.048 48.7353 16.36 48.8793 16.648C49.2393 17.44 49.7193 18.076 50.3193 18.556C50.9433 19.036 51.6273 19.276 52.3713 19.276C53.2113 19.3 53.9913 19 54.7113 18.376C55.0473 18.088 55.3473 17.74 55.6113 17.332C56.2353 16.372 56.5713 15.268 56.6193 14.02C56.6433 12.532 56.2593 11.26 55.4673 10.204C54.6753 9.148 53.7033 8.62 52.5513 8.62C51.4233 8.596 50.4393 9.1 49.5993 10.132C48.7833 11.164 48.3633 12.412 48.3393 13.876ZM57.0153 29.644C57.3753 29.14 57.4833 28.612 57.3393 28.06C57.1473 27.124 56.3313 26.512 54.8913 26.224C54.4113 26.128 53.8593 26.068 53.2353 26.044C53.0193 26.044 52.7913 26.044 52.5513 26.044C52.3113 26.044 52.0473 26.032 51.7593 26.008C51.4713 26.008 51.2433 26.008 51.0753 26.008C50.8593 25.984 50.5473 25.972 50.1393 25.972C49.3953 25.972 48.8313 25.96 48.4473 25.936C48.0633 25.936 47.5713 25.864 46.9713 25.72C46.3713 25.6 45.8673 25.42 45.4593 25.18C45.1953 24.988 44.9313 24.772 44.6673 24.532C44.6433 24.556 44.6193 24.604 44.5953 24.676C44.0913 25.348 43.9593 26.104 44.1993 26.944C44.4873 28.024 45.0993 28.936 46.0353 29.68C46.9713 30.424 48.0273 30.94 49.2033 31.228C50.4033 31.516 51.6033 31.576 52.8033 31.408C55.0113 31.144 56.4153 30.556 57.0153 29.644ZM78.6083 22.516C79.7123 22.9 80.5283 23.596 81.0563 24.604C81.5843 25.588 81.7403 26.608 81.5243 27.664C81.4523 27.952 81.3563 28.228 81.2363 28.492C80.6123 29.884 79.4363 30.928 77.7083 31.624C75.9803 32.344 74.1683 32.704 72.2723 32.704C70.8323 32.704 69.4763 32.5 68.2043 32.092C66.5243 31.588 65.1683 30.82 64.1363 29.788C63.1043 28.756 62.5883 27.616 62.5883 26.368C62.5883 25.36 62.9483 24.4 63.6683 23.488C63.3563 22.96 63.1643 22.408 63.0923 21.832C63.0923 21.784 63.0923 21.76 63.0923 21.76C63.0203 20.752 63.4163 19.708 64.2803 18.628C64.5203 18.34 64.7963 18.04 65.1083 17.728C63.7643 16.576 63.1043 15.268 63.1283 13.804C63.1523 12.292 63.8963 10.972 65.3603 9.844C66.8483 8.716 68.6843 8.044 70.8683 7.828C71.3723 6.988 71.9963 6.268 72.7402 5.668C73.4843 5.068 74.2163 4.636 74.9363 4.372C75.6803 4.084 76.2803 3.892 76.7363 3.796C77.2163 3.676 77.6483 3.604 78.0323 3.58C78.1043 3.556 78.1763 3.544 78.2483 3.544H78.2843C78.3083 3.544 78.3323 3.544 78.3563 3.544C79.0523 3.544 79.6523 3.748 80.1562 4.156C80.6603 4.564 80.9123 5.056 80.9123 5.632C80.9123 6.208 80.6603 6.7 80.1562 7.108C79.6523 7.516 79.0523 7.72 78.3563 7.72C77.7323 7.72 77.1803 7.564 76.7003 7.252C76.2443 6.94 75.9563 6.544 75.8363 6.064C74.2283 6.064 72.9563 6.628 72.0203 7.756C72.1643 7.756 72.2843 7.756 72.3803 7.756C74.9243 7.78 77.0723 8.416 78.8243 9.664C80.5763 10.888 81.4283 12.352 81.3803 14.056C81.3563 15.76 80.4323 17.2 78.6083 18.376C76.8083 19.552 74.6483 20.128 72.1283 20.104C70.3043 20.08 68.6243 19.708 67.0883 18.988C67.0643 19.18 67.0763 19.372 67.1243 19.564C67.1483 19.732 67.1963 19.9 67.2683 20.068C67.3403 20.236 67.4243 20.392 67.5203 20.536C67.6403 20.68 67.7723 20.812 67.9163 20.932C68.0603 21.052 68.2043 21.16 68.3483 21.256C68.5163 21.352 68.6963 21.436 68.8883 21.508C69.4403 21.748 70.2803 21.88 71.4082 21.904C71.9603 21.904 72.5603 21.904 73.2083 21.904C73.8563 21.904 74.4683 21.916 75.0443 21.94C75.6203 21.94 76.2203 21.988 76.8443 22.084C77.4923 22.18 78.0803 22.324 78.6083 22.516ZM68.1323 13.876C68.1323 14.5 68.2043 15.112 68.3483 15.712C68.4203 16.048 68.5283 16.36 68.6723 16.648C69.0323 17.44 69.5123 18.076 70.1123 18.556C70.7363 19.036 71.4203 19.276 72.1643 19.276C73.0043 19.3 73.7843 19 74.5043 18.376C74.8403 18.088 75.1403 17.74 75.4043 17.332C76.0283 16.372 76.3643 15.268 76.4123 14.02C76.4363 12.532 76.0523 11.26 75.2603 10.204C74.4683 9.148 73.4963 8.62 72.3443 8.62C71.2163 8.596 70.2323 9.1 69.3923 10.132C68.5763 11.164 68.1563 12.412 68.1323 13.876ZM76.8083 29.644C77.1683 29.14 77.2763 28.612 77.1323 28.06C76.9403 27.124 76.1243 26.512 74.6843 26.224C74.2043 26.128 73.6523 26.068 73.0283 26.044C72.8123 26.044 72.5843 26.044 72.3443 26.044C72.1043 26.044 71.8403 26.032 71.5523 26.008C71.2643 26.008 71.0363 26.008 70.8683 26.008C70.6523 25.984 70.3403 25.972 69.9323 25.972C69.1883 25.972 68.6243 25.96 68.2403 25.936C67.8563 25.936 67.3643 25.864 66.7643 25.72C66.1643 25.6 65.6603 25.42 65.2523 25.18C64.9883 24.988 64.7243 24.772 64.4603 24.532C64.4363 24.556 64.4123 24.604 64.3883 24.676C63.8843 25.348 63.7523 26.104 63.9923 26.944C64.2803 28.024 64.8923 28.936 65.8283 29.68C66.7643 30.424 67.8203 30.94 68.9963 31.228C70.1963 31.516 71.3963 31.576 72.5963 31.408C74.8043 31.144 76.2083 30.556 76.8083 29.644ZM96.4212 14.2C95.4612 16.408 92.4252 17.38 87.3132 17.116C87.4332 18.868 87.9852 20.344 88.9692 21.544C89.9532 22.744 91.1172 23.344 92.4612 23.344C93.5652 23.344 94.5732 22.912 95.4852 22.048C95.5092 22 95.5452 21.976 95.5932 21.976H96.2772C96.3492 21.976 96.3972 22.012 96.4212 22.084C96.4452 22.132 96.4332 22.168 96.3852 22.192C94.8012 24.04 92.8452 24.964 90.5172 24.964C88.3092 24.964 86.4252 24.124 84.8652 22.444C83.3052 20.764 82.5252 18.736 82.5252 16.36C82.5252 13.984 83.3052 11.956 84.8652 10.276C86.4252 8.572 88.3092 7.72 90.5172 7.72C92.1492 7.72 93.5292 8.152 94.6572 9.016C94.9452 9.208 95.1972 9.424 95.4132 9.664C95.9892 10.288 96.3732 11.008 96.5652 11.824C96.7812 12.616 96.7332 13.408 96.4212 14.2ZM87.2772 16.216C87.3252 16.24 87.3972 16.252 87.4932 16.252C87.6132 16.252 87.8292 16.252 88.1412 16.252C88.4532 16.252 88.7532 16.24 89.0412 16.216C89.3532 16.192 89.7132 16.144 90.1212 16.072C90.5292 15.976 90.9012 15.856 91.2372 15.712C91.5732 15.568 91.9092 15.376 92.2452 15.136C92.6052 14.896 92.8932 14.62 93.1092 14.308C93.3252 13.972 93.4932 13.576 93.6132 13.12C93.7332 12.64 93.7572 12.112 93.6852 11.536V11.5C93.6132 10.708 93.2772 10.144 92.6772 9.808C92.0772 9.448 91.4052 9.448 90.6612 9.808C89.6772 10.288 88.8732 11.116 88.2492 12.292C87.6252 13.468 87.3012 14.776 87.2772 16.216ZM110.201 22.624C110.201 22.696 110.177 22.768 110.129 22.84C109.529 23.944 108.545 24.628 107.177 24.892C106.529 24.988 105.881 25.012 105.233 24.964C104.201 24.892 103.229 24.604 102.317 24.1C101.429 23.572 100.721 22.828 100.193 21.868C99.9533 21.436 99.7613 20.98 99.6173 20.5C99.5453 20.284 99.4733 19.876 99.4013 19.276C99.2813 18.628 99.2093 17.956 99.1853 17.26V11.788C99.1853 11.764 99.1853 11.752 99.1853 11.752V11.644V9.988H97.9613C97.8893 9.988 97.8173 9.976 97.7453 9.952C97.6733 9.904 97.6133 9.856 97.5653 9.808C97.5413 9.736 97.5293 9.664 97.5293 9.592V9.232C97.5293 8.992 97.6613 8.86 97.9253 8.836C98.3813 8.836 98.8013 8.788 99.1853 8.692C99.9293 8.548 100.577 8.296 101.129 7.936C101.681 7.552 102.077 7.192 102.317 6.856C102.557 6.496 102.797 6.196 103.037 5.956C103.301 5.692 103.541 5.584 103.757 5.632C104.045 5.68 104.189 5.836 104.189 6.1V8.836H105.557C105.797 8.836 105.917 8.944 105.917 9.16V9.664C105.917 9.88 105.797 9.988 105.557 9.988H104.189V17.944V17.98C104.189 18.052 104.189 18.148 104.189 18.268C104.189 18.364 104.189 18.484 104.189 18.628C104.189 18.748 104.189 18.832 104.189 18.88C104.189 19.144 104.201 19.468 104.225 19.852C104.489 22.156 105.281 23.332 106.601 23.38C106.889 23.38 107.177 23.344 107.465 23.272C107.729 23.224 108.029 23.128 108.365 22.984C108.701 22.816 108.977 22.66 109.193 22.516L109.481 22.336C109.649 22.264 109.793 22.264 109.913 22.336C110.057 22.384 110.153 22.48 110.201 22.624Z" fill="#E87F12"/>
</svg>
