<svg width="587" height="81" viewBox="0 0 587 81" fill="none" xmlns="http://www.w3.org/2000/svg">
<path d="M194.344 0.975999L196.408 6.736C196.504 6.992 196.424 7.2 196.168 7.36C195.912 7.52 195.672 7.504 195.448 7.312C191.64 4.272 188.472 2.752 185.944 2.752H184.12V28.864C184.184 30.72 184.472 32.176 184.984 33.232C185.08 33.424 185.064 33.6 184.936 33.76C184.808 33.92 184.632 34 184.408 34H177.016C176.792 34 176.616 33.92 176.488 33.76C176.36 33.6 176.344 33.424 176.44 33.232C176.952 32.176 177.24 30.72 177.304 28.864V12.112V6.16V2.752H175.96C173.432 2.752 170.248 4.272 166.408 7.312C166.184 7.504 165.944 7.536 165.688 7.408C165.431 7.248 165.351 7.024 165.447 6.736L167.56 0.975999H194.344ZM205.015 3.184C207.927 1.712 211.095 0.975999 214.519 0.975999C217.975 0.975999 221.159 1.712 224.071 3.184C226.983 4.656 229.287 6.672 230.983 9.232C232.679 11.76 233.527 14.528 233.527 17.536C233.527 20.512 232.679 23.264 230.983 25.792C229.287 28.32 226.983 30.32 224.071 31.792C221.159 33.264 217.975 34 214.519 34C211.095 34 207.927 33.264 205.015 31.792C202.103 30.32 199.799 28.32 198.103 25.792C196.407 23.264 195.559 20.512 195.559 17.536C195.559 14.528 196.407 11.76 198.103 9.232C199.799 6.672 202.103 4.656 205.015 3.184ZM214.567 32.752C217.639 32.752 220.263 31.264 222.439 28.288C224.615 25.28 225.703 21.68 225.703 17.488C225.703 13.264 224.615 9.664 222.439 6.688C220.263 3.68 217.623 2.176 214.519 2.176C211.447 2.176 208.823 3.68 206.647 6.688C204.471 9.664 203.383 13.264 203.383 17.488C203.383 20.24 203.879 22.8 204.871 25.168C205.863 27.504 207.207 29.36 208.903 30.736C210.631 32.08 212.519 32.752 214.567 32.752ZM273.827 3.808C274.115 4 274.419 4.24 274.739 4.528C275.091 4.816 275.507 5.344 275.987 6.112C276.499 6.848 276.707 7.536 276.611 8.176C276.451 9.072 275.971 9.808 275.171 10.384C274.371 10.928 273.443 11.168 272.387 11.104C271.395 11.04 270.531 10.688 269.795 10.048C269.091 9.408 268.723 8.656 268.691 7.792C268.627 6.96 268.867 6.208 269.411 5.536C269.443 5.504 269.475 5.472 269.507 5.44V5.392C269.731 5.136 269.811 4.88 269.747 4.624C269.747 4.592 269.747 4.56 269.747 4.528C269.715 4.496 269.699 4.48 269.699 4.48C269.635 4.288 269.539 4.08 269.411 3.856C268.419 2.544 266.819 2.304 264.611 3.136C262.147 4.032 260.051 5.792 258.323 8.416C256.595 11.008 255.731 13.888 255.731 17.056C255.731 18.88 255.971 20.64 256.451 22.336C256.931 24 257.587 25.472 258.419 26.752C259.283 28.032 260.307 29.088 261.491 29.92C262.707 30.72 263.987 31.248 265.331 31.504C266.707 31.728 268.195 31.584 269.795 31.072C271.395 30.56 272.963 29.648 274.499 28.336C274.563 28.272 274.643 28.24 274.739 28.24H276.035C276.163 28.24 276.259 28.304 276.323 28.432C276.387 28.528 276.371 28.608 276.275 28.672C275.091 30.048 273.731 31.168 272.195 32.032C271.363 32.544 270.387 32.976 269.267 33.328C267.827 33.776 266.371 34 264.899 34C264.899 34 264.883 34 264.851 34C264.819 34 264.803 34 264.803 34C264.803 34 264.787 34 264.755 34C261.779 34 259.043 33.264 256.547 31.792C254.051 30.32 252.067 28.32 250.595 25.792C249.155 23.232 248.435 20.464 248.435 17.488C248.435 15.696 248.707 13.968 249.251 12.304C249.795 10.608 250.563 9.088 251.555 7.744C252.579 6.4 253.763 5.216 255.107 4.192C256.451 3.168 257.939 2.384 259.571 1.84C261.235 1.264 262.963 0.975999 264.755 0.975999C268.051 0.975999 271.075 1.92 273.827 3.808ZM303.177 31.696C303.465 32.208 303.801 32.688 304.185 33.136C304.345 33.296 304.361 33.488 304.233 33.712C304.137 33.904 303.961 34 303.705 34H302.937H296.553H296.169C295.945 34 295.769 33.904 295.641 33.712C295.513 33.488 295.529 33.296 295.689 33.136C296.457 32.208 296.681 31.152 296.361 29.968C295.721 27.632 293.497 26.24 289.689 25.792C287.801 25.536 286.553 24.96 285.945 24.064C285.945 24.128 285.945 24.192 285.945 24.256V28.816C286.009 30.704 286.297 32.176 286.809 33.232C286.841 33.36 286.841 33.488 286.809 33.616C286.777 33.712 286.713 33.808 286.617 33.904C286.521 33.968 286.393 34 286.233 34H278.841C278.617 34 278.441 33.92 278.313 33.76C278.185 33.6 278.169 33.424 278.265 33.232C278.777 32.176 279.065 30.72 279.129 28.864V6.16C279.065 4.272 278.777 2.8 278.265 1.744C278.169 1.584 278.185 1.424 278.313 1.264C278.441 1.072 278.617 0.975999 278.841 0.975999H292.665C292.665 0.975999 292.681 0.975999 292.713 0.975999H292.761C296.121 1.008 299.001 1.92 301.401 3.712C303.801 5.504 305.017 7.68 305.049 10.24C305.113 12.224 304.425 14.016 302.985 15.616C301.577 17.216 299.721 18.384 297.417 19.12C296.233 19.504 293.881 19.712 290.361 19.744C289.241 19.808 288.329 20.144 287.625 20.752C287.177 21.264 286.969 21.712 287.001 22.096C287.065 22.448 287.305 22.736 287.721 22.96C288.137 23.184 288.553 23.36 288.969 23.488C289.417 23.584 289.801 23.648 290.121 23.68C295.529 23.776 299.273 25.328 301.353 28.336C301.385 28.368 301.417 28.416 301.449 28.48C301.769 28.96 302.041 29.488 302.265 30.064C302.649 30.832 302.953 31.376 303.177 31.696ZM285.945 6.16V18.112V20.944C285.945 20.944 285.977 20.88 286.041 20.752C286.137 20.592 286.313 20.4 286.569 20.176C286.825 19.92 287.129 19.68 287.481 19.456C287.865 19.232 288.361 19.04 288.969 18.88C289.577 18.688 290.249 18.576 290.985 18.544C291.049 18.544 291.097 18.544 291.129 18.544H292.041C293.417 18.512 294.457 18.256 295.161 17.776C295.225 17.744 295.257 17.712 295.257 17.68C296.217 17.008 296.969 16.016 297.513 14.704C298.057 13.36 298.313 11.904 298.281 10.336C298.217 8.128 297.641 6.24 296.553 4.672C295.497 3.104 294.233 2.288 292.761 2.224H285.945V6.16ZM330.715 28.528C330.875 28.304 331.099 28.224 331.387 28.288C331.707 28.352 331.867 28.528 331.867 28.816L329.802 34H307.435C307.211 34 307.035 33.92 306.907 33.76C306.779 33.6 306.763 33.424 306.859 33.232C307.371 32.176 307.659 30.72 307.723 28.864V6.16C307.659 4.272 307.371 2.8 306.859 1.744C306.795 1.616 306.779 1.504 306.811 1.408C306.843 1.28 306.907 1.184 307.003 1.12C307.131 1.024 307.275 0.975999 307.435 0.975999L329.802 0.927999L331.867 6.16C331.867 6.448 331.707 6.624 331.387 6.688C331.099 6.752 330.875 6.672 330.715 6.448C329.179 3.984 327.291 2.752 325.051 2.752H314.539V17.872C314.539 17.84 314.555 17.808 314.587 17.776C314.619 17.712 314.699 17.616 314.827 17.488C314.955 17.328 315.083 17.184 315.211 17.056C315.339 16.896 315.531 16.736 315.787 16.576C316.043 16.416 316.299 16.288 316.555 16.192C316.843 16.064 317.179 15.968 317.562 15.904C317.947 15.808 318.363 15.76 318.811 15.76H321.931C324.107 15.76 325.835 15.264 327.115 14.272C327.307 14.144 327.499 14.128 327.691 14.224C327.883 14.288 327.979 14.416 327.979 14.608V18.592C327.979 18.784 327.867 18.928 327.643 19.024C327.451 19.088 327.275 19.056 327.115 18.928C325.963 18.032 324.443 17.552 322.555 17.488H318.763C317.995 17.552 317.323 17.744 316.747 18.064C316.203 18.384 315.771 18.768 315.451 19.216C315.163 19.664 314.939 20.064 314.779 20.416C314.651 20.768 314.571 21.136 314.539 21.52V28.864V32.224H325.051C327.291 32.224 329.179 30.992 330.715 28.528ZM367.704 33.136C367.864 33.296 367.88 33.488 367.752 33.712C367.656 33.904 367.48 34 367.224 34H364.488H364.44H362.232H358.008C357.784 34 357.608 33.92 357.48 33.76C357.352 33.6 357.336 33.424 357.432 33.232C358.104 31.856 358.008 29.968 357.144 27.568L356.376 25.792L354.696 22C354.536 22.288 354.264 22.528 353.88 22.72C353.752 22.816 353.544 22.896 353.256 22.96C352.968 22.992 352.728 23.008 352.536 23.008L352.2 23.056H343.56C341.288 23.184 339.544 24.48 338.328 26.944L337.992 27.712L337.512 28.768L336.888 30.208C336.472 31.296 336.52 32.288 337.032 33.184C337.128 33.376 337.112 33.568 336.984 33.76C336.888 33.92 336.728 34 336.504 34H332.472C332.184 34 331.992 33.888 331.896 33.664C331.8 33.408 331.864 33.2 332.088 33.04C333.464 32.112 334.424 30.96 334.968 29.584L344.712 7.216C345.576 5.232 345.752 3.392 345.24 1.696C345.208 1.568 345.208 1.456 345.24 1.36C345.304 1.232 345.384 1.136 345.48 1.072C345.576 1.008 345.704 0.975999 345.864 0.975999H353.592C353.784 0.975999 353.944 1.056 354.072 1.216C354.2 1.344 354.248 1.488 354.216 1.648C353.96 2.768 354.184 4.128 354.888 5.728L364.392 27.616C365.576 30.08 366.68 31.92 367.704 33.136ZM350.856 21.856C352.008 21.792 352.792 21.52 353.208 21.04C353.656 20.56 353.8 20.048 353.64 19.504L352.872 17.824L347.592 5.632L341.88 18.784L340.536 21.856L339.816 23.392C339.848 23.36 339.88 23.312 339.912 23.248C339.976 23.184 340.12 23.072 340.344 22.912C340.568 22.72 340.808 22.56 341.064 22.432C341.32 22.272 341.672 22.144 342.12 22.048C342.6 21.92 343.112 21.856 343.656 21.856H350.856ZM391.828 0.975999L393.892 6.736C393.988 6.992 393.908 7.2 393.652 7.36C393.396 7.52 393.156 7.504 392.932 7.312C389.124 4.272 385.956 2.752 383.428 2.752H381.604V28.864C381.668 30.72 381.956 32.176 382.468 33.232C382.564 33.424 382.548 33.6 382.42 33.76C382.292 33.92 382.116 34 381.892 34H374.5C374.276 34 374.1 33.92 373.972 33.76C373.844 33.6 373.828 33.424 373.924 33.232C374.436 32.176 374.724 30.72 374.788 28.864V12.112V6.16V2.752H373.444C370.916 2.752 367.732 4.272 363.892 7.312C363.668 7.504 363.428 7.536 363.172 7.408C362.916 7.248 362.836 7.024 362.932 6.736L365.044 0.975999H391.828ZM418.699 28.528C418.859 28.304 419.083 28.224 419.371 28.288C419.691 28.352 419.851 28.528 419.851 28.816L417.787 34H395.419C395.195 34 395.019 33.92 394.891 33.76C394.763 33.6 394.747 33.424 394.843 33.232C395.355 32.176 395.643 30.72 395.707 28.864V6.16C395.643 4.272 395.355 2.8 394.843 1.744C394.779 1.616 394.763 1.504 394.795 1.408C394.827 1.28 394.891 1.184 394.987 1.12C395.115 1.024 395.259 0.975999 395.419 0.975999L417.787 0.927999L419.851 6.16C419.851 6.448 419.691 6.624 419.371 6.688C419.083 6.752 418.859 6.672 418.699 6.448C417.163 3.984 415.275 2.752 413.035 2.752H402.523V17.872C402.523 17.84 402.539 17.808 402.571 17.776C402.603 17.712 402.683 17.616 402.811 17.488C402.939 17.328 403.067 17.184 403.195 17.056C403.323 16.896 403.515 16.736 403.771 16.576C404.027 16.416 404.283 16.288 404.539 16.192C404.827 16.064 405.163 15.968 405.547 15.904C405.931 15.808 406.347 15.76 406.795 15.76H409.915C412.091 15.76 413.819 15.264 415.099 14.272C415.291 14.144 415.483 14.128 415.675 14.224C415.867 14.288 415.963 14.416 415.963 14.608V18.592C415.963 18.784 415.851 18.928 415.627 19.024C415.435 19.088 415.259 19.056 415.099 18.928C413.947 18.032 412.427 17.552 410.539 17.488H406.747C405.979 17.552 405.307 17.744 404.731 18.064C404.187 18.384 403.755 18.768 403.435 19.216C403.147 19.664 402.923 20.064 402.763 20.416C402.635 20.768 402.555 21.136 402.523 21.52V28.864V32.224H413.035C415.275 32.224 417.163 30.992 418.699 28.528ZM8.28069 52.112V74.816C8.34469 76.672 8.63269 78.128 9.14469 79.184C9.24069 79.376 9.22469 79.552 9.09669 79.712C8.96869 79.872 8.79269 79.952 8.56869 79.952H1.17669C0.952688 79.952 0.776688 79.872 0.648688 79.712C0.520688 79.552 0.504688 79.376 0.600688 79.184C1.11269 78.128 1.40069 76.672 1.46469 74.816V52.112C1.40069 50.224 1.11269 48.752 0.600688 47.696C0.504688 47.536 0.520688 47.376 0.648688 47.216C0.776688 47.024 0.952688 46.928 1.17669 46.928H8.56869C8.79269 46.928 8.96869 47.024 9.09669 47.216C9.22469 47.376 9.24069 47.536 9.14469 47.696C8.63269 48.752 8.34469 50.224 8.28069 52.112ZM35.7089 66.224C36.2849 66.992 36.6849 67.856 36.9089 68.816C37.1329 69.744 37.2289 70.4 37.1969 70.784C37.1969 71.136 37.1649 71.424 37.1009 71.648C36.3009 75.424 33.5169 77.968 28.7489 79.28C26.9249 79.76 25.0209 80 23.0369 80C22.9089 80 22.7649 80 22.6049 80C18.8929 79.744 15.8849 78.688 13.5809 76.832C12.9089 76.288 12.3809 75.728 11.9969 75.152C11.4209 74.352 11.1969 73.552 11.3249 72.752C11.4209 72.144 11.6929 71.6 12.1409 71.12C12.6209 70.608 13.1969 70.256 13.8689 70.064C14.1889 69.968 14.5249 69.904 14.8769 69.872C15.0689 69.84 15.2609 69.84 15.4529 69.872C15.5169 69.872 15.5809 69.872 15.6449 69.872C15.8369 69.904 16.0129 69.936 16.1729 69.968C17.0049 70.128 17.6929 70.512 18.2369 71.12C18.8129 71.728 19.1169 72.416 19.1489 73.184C19.1809 73.696 19.1009 74.192 18.9089 74.672C18.8449 74.672 18.7969 74.816 18.7649 75.104C18.7649 75.392 18.8449 75.664 19.0049 75.92C19.8369 77.072 20.9729 77.792 22.4129 78.08C23.2769 78.176 24.1089 78.176 24.9089 78.08C25.7089 77.952 26.4449 77.68 27.1169 77.264C27.8209 76.848 28.3649 76.288 28.7489 75.584C29.4849 74.336 29.6609 73.2 29.2769 72.176C28.7649 70.896 27.7409 69.744 26.2049 68.72C25.1809 68.08 23.6449 67.248 21.5969 66.224H21.5009C18.7169 64.944 16.7169 63.888 15.5009 63.056C15.3409 62.96 15.2609 62.912 15.2609 62.912C14.6209 62.528 14.0449 62.096 13.5329 61.616C12.6689 60.816 12.0609 59.888 11.7089 58.832C11.3569 57.776 11.2129 56.944 11.2769 56.336L11.3729 55.376C12.1729 51.568 14.9569 49.024 19.7249 47.744C21.5489 47.232 23.4529 46.976 25.4369 46.976C25.5649 46.976 25.7089 46.976 25.8689 46.976C29.5809 47.232 32.5889 48.304 34.8929 50.192C35.5649 50.736 36.0929 51.28 36.4769 51.824C37.0529 52.656 37.2769 53.456 37.1489 54.224C37.0529 54.864 36.7649 55.424 36.2849 55.904C35.8369 56.384 35.2769 56.736 34.6049 56.96C34.2849 57.056 33.9489 57.104 33.5969 57.104C33.4049 57.136 33.2129 57.152 33.0209 57.152C32.9569 57.152 32.8929 57.136 32.8289 57.104C32.6369 57.104 32.4609 57.088 32.3009 57.056C31.7569 56.928 31.2609 56.704 30.8129 56.384C30.3649 56.064 30.0129 55.68 29.7569 55.232C29.5009 54.784 29.3569 54.304 29.3249 53.792C29.2929 53.28 29.3729 52.784 29.5649 52.304C29.6289 52.304 29.6769 52.16 29.7089 51.872C29.7089 51.584 29.6289 51.312 29.4689 51.056C28.9569 50.352 28.3009 49.808 27.5009 49.424C26.0289 48.688 24.4609 48.592 22.7969 49.136C21.1329 49.68 19.9969 50.64 19.3889 52.016C18.8129 53.328 18.9089 54.56 19.6769 55.712C20.4129 56.8 21.5649 57.808 23.1329 58.736C23.9649 59.248 25.3089 59.952 27.1649 60.848C28.7329 61.552 29.9169 62.128 30.7169 62.576C31.9329 63.216 32.9409 63.824 33.7409 64.4C34.5409 64.944 35.1969 65.552 35.7089 66.224ZM80.4138 46.976L82.4778 52.736C82.5738 52.992 82.4938 53.2 82.2378 53.36C81.9818 53.52 81.7418 53.504 81.5178 53.312C77.7098 50.272 74.5418 48.752 72.0138 48.752H70.1898V74.864C70.2538 76.72 70.5418 78.176 71.0538 79.232C71.1498 79.424 71.1338 79.6 71.0058 79.76C70.8778 79.92 70.7018 80 70.4778 80H63.0858C62.8618 80 62.6858 79.92 62.5578 79.76C62.4298 79.6 62.4138 79.424 62.5098 79.232C63.0218 78.176 63.3098 76.72 63.3738 74.864V58.112V52.16V48.752H62.0298C59.5018 48.752 56.3178 50.272 52.4778 53.312C52.2538 53.504 52.0138 53.536 51.7578 53.408C51.5018 53.248 51.4218 53.024 51.5178 52.736L53.6298 46.976H80.4138ZM91.0856 49.184C93.9976 47.712 97.1656 46.976 100.59 46.976C104.046 46.976 107.23 47.712 110.142 49.184C113.054 50.656 115.358 52.672 117.054 55.232C118.75 57.76 119.598 60.528 119.598 63.536C119.598 66.512 118.75 69.264 117.054 71.792C115.358 74.32 113.054 76.32 110.142 77.792C107.23 79.264 104.046 80 100.59 80C97.1656 80 93.9976 79.264 91.0856 77.792C88.1736 76.32 85.8696 74.32 84.1736 71.792C82.4776 69.264 81.6296 66.512 81.6296 63.536C81.6296 60.528 82.4776 57.76 84.1736 55.232C85.8696 52.672 88.1736 50.656 91.0856 49.184ZM100.638 78.752C103.71 78.752 106.334 77.264 108.51 74.288C110.686 71.28 111.774 67.68 111.774 63.488C111.774 59.264 110.686 55.664 108.51 52.688C106.334 49.68 103.694 48.176 100.59 48.176C97.5176 48.176 94.8936 49.68 92.7176 52.688C90.5416 55.664 89.4536 59.264 89.4536 63.488C89.4536 66.24 89.9496 68.8 90.9416 71.168C91.9336 73.504 93.2776 75.36 94.9736 76.736C96.7016 78.08 98.5896 78.752 100.638 78.752ZM151.402 47.216C155.114 47.92 158.186 49.808 160.618 52.88C163.082 55.92 164.314 59.456 164.314 63.488C164.314 67.392 163.162 70.848 160.858 73.856C158.554 76.864 155.642 78.784 152.122 79.616C151.866 79.68 151.546 79.744 151.162 79.808C150.81 79.84 150.186 79.888 149.29 79.952C148.426 79.984 147.466 80 146.41 80H135.802C135.578 80 135.402 79.92 135.274 79.76C135.146 79.6 135.13 79.424 135.226 79.232C135.738 78.176 136.026 76.72 136.09 74.864V52.16C136.026 50.272 135.738 48.8 135.226 47.744C135.13 47.584 135.146 47.424 135.274 47.264C135.402 47.072 135.578 46.976 135.802 46.976H146.65C147.674 46.976 148.57 47.008 149.338 47.072C150.138 47.104 150.682 47.136 150.97 47.168L151.402 47.216ZM153.898 75.344C154.986 73.84 155.85 72.064 156.49 70.016C157.162 67.968 157.498 65.792 157.498 63.488C157.498 58.816 156.394 54.944 154.186 51.872C153.194 50.56 152.042 49.632 150.73 49.088C149.45 48.544 148.266 48.256 147.178 48.224H142.906V53.552V69.92V74.864V78.8H146.698C148.33 78.8 149.802 78.384 151.114 77.552C152.458 76.72 153.386 75.984 153.898 75.344ZM190.16 74.528C190.32 74.304 190.544 74.224 190.832 74.288C191.152 74.352 191.312 74.528 191.312 74.816L189.248 80H166.88C166.656 80 166.48 79.92 166.352 79.76C166.224 79.6 166.208 79.424 166.304 79.232C166.816 78.176 167.104 76.72 167.168 74.864V52.16C167.104 50.272 166.816 48.8 166.304 47.744C166.24 47.616 166.224 47.504 166.256 47.408C166.288 47.28 166.352 47.184 166.448 47.12C166.576 47.024 166.72 46.976 166.88 46.976L189.248 46.928L191.312 52.16C191.312 52.448 191.152 52.624 190.832 52.688C190.544 52.752 190.32 52.672 190.16 52.448C188.624 49.984 186.736 48.752 184.496 48.752H173.984V63.872C173.984 63.84 174 63.808 174.032 63.776C174.064 63.712 174.144 63.616 174.272 63.488C174.4 63.328 174.528 63.184 174.656 63.056C174.784 62.896 174.976 62.736 175.232 62.576C175.488 62.416 175.744 62.288 176 62.192C176.288 62.064 176.624 61.968 177.008 61.904C177.392 61.808 177.808 61.76 178.256 61.76H181.376C183.552 61.76 185.28 61.264 186.56 60.272C186.752 60.144 186.944 60.128 187.136 60.224C187.328 60.288 187.424 60.416 187.424 60.608V64.592C187.424 64.784 187.312 64.928 187.088 65.024C186.896 65.088 186.72 65.056 186.56 64.928C185.408 64.032 183.888 63.552 182 63.488H178.208C177.44 63.552 176.768 63.744 176.192 64.064C175.648 64.384 175.216 64.768 174.896 65.216C174.608 65.664 174.384 66.064 174.224 66.416C174.096 66.768 174.016 67.136 173.984 67.52V74.864V78.224H184.496C186.736 78.224 188.624 76.992 190.16 74.528ZM222.637 46.976C222.925 46.976 223.117 47.104 223.213 47.36C223.309 47.584 223.261 47.776 223.069 47.936C221.981 48.832 221.021 50.176 220.189 51.968L214.861 65.168L211.549 73.424C210.845 75.76 210.781 77.712 211.357 79.28C211.421 79.472 211.389 79.648 211.261 79.808C211.133 79.936 210.973 80 210.781 80H201.373C201.181 80 201.021 79.936 200.893 79.808C200.765 79.648 200.733 79.472 200.797 79.28C201.309 77.872 201.293 76.112 200.749 74L194.269 52.544C194.077 51.936 193.709 51.168 193.165 50.24C192.621 49.312 192.077 48.528 191.533 47.888C191.373 47.696 191.357 47.504 191.485 47.312C191.581 47.088 191.757 46.976 192.013 46.976H200.173C200.365 46.976 200.525 47.056 200.653 47.216C200.781 47.344 200.813 47.488 200.749 47.648C200.493 48.672 200.477 49.648 200.701 50.576L208.381 76.016L212.605 65.504L218.029 51.92C218.765 50.32 218.541 48.992 217.357 47.936C217.165 47.744 217.117 47.536 217.213 47.312C217.309 47.088 217.501 46.976 217.789 46.976H222.637ZM247.957 74.528C248.117 74.304 248.341 74.224 248.629 74.288C248.949 74.352 249.109 74.528 249.109 74.816L247.045 80H224.677C224.453 80 224.277 79.92 224.149 79.76C224.021 79.6 224.005 79.424 224.101 79.232C224.613 78.176 224.901 76.72 224.965 74.864V52.16C224.901 50.272 224.613 48.8 224.101 47.744C224.037 47.616 224.021 47.504 224.053 47.408C224.085 47.28 224.149 47.184 224.245 47.12C224.373 47.024 224.517 46.976 224.677 46.976L247.045 46.928L249.109 52.16C249.109 52.448 248.949 52.624 248.629 52.688C248.341 52.752 248.117 52.672 247.957 52.448C246.421 49.984 244.533 48.752 242.293 48.752H231.781V63.872C231.781 63.84 231.797 63.808 231.829 63.776C231.861 63.712 231.941 63.616 232.069 63.488C232.197 63.328 232.325 63.184 232.453 63.056C232.581 62.896 232.773 62.736 233.029 62.576C233.285 62.416 233.541 62.288 233.797 62.192C234.085 62.064 234.421 61.968 234.805 61.904C235.189 61.808 235.605 61.76 236.053 61.76H239.173C241.349 61.76 243.077 61.264 244.357 60.272C244.549 60.144 244.741 60.128 244.933 60.224C245.125 60.288 245.221 60.416 245.221 60.608V64.592C245.221 64.784 245.109 64.928 244.885 65.024C244.693 65.088 244.517 65.056 244.357 64.928C243.205 64.032 241.685 63.552 239.797 63.488H236.005C235.237 63.552 234.565 63.744 233.989 64.064C233.445 64.384 233.013 64.768 232.693 65.216C232.405 65.664 232.181 66.064 232.021 66.416C231.893 66.768 231.813 67.136 231.781 67.52V74.864V78.224H242.293C244.533 78.224 246.421 76.992 247.957 74.528ZM265.266 78.224C266.13 78.224 266.93 78.192 267.666 78.128C268.402 78.064 269.026 78 269.538 77.936C270.05 77.84 270.546 77.696 271.026 77.504C271.538 77.28 271.906 77.12 272.13 77.024C272.386 76.928 272.69 76.72 273.042 76.4C273.394 76.08 273.602 75.888 273.666 75.824C273.762 75.728 273.97 75.488 274.29 75.104C274.61 74.72 274.802 74.496 274.866 74.432C274.994 74.304 275.154 74.24 275.346 74.24C275.538 74.24 275.682 74.32 275.778 74.48C275.906 74.608 275.938 74.768 275.874 74.96L273.858 80L251.442 79.952C251.218 79.952 251.042 79.872 250.914 79.712C250.786 79.552 250.77 79.376 250.866 79.184C251.378 78.128 251.666 76.672 251.73 74.816V52.112C251.666 50.224 251.378 48.752 250.866 47.696C250.77 47.536 250.786 47.376 250.914 47.216C251.042 47.024 251.218 46.928 251.442 46.928H258.834C259.058 46.928 259.234 47.024 259.362 47.216C259.49 47.376 259.506 47.536 259.41 47.696C258.898 48.752 258.61 50.224 258.546 52.112V71.024V74.816V78.224H265.266ZM284.211 49.184C287.123 47.712 290.291 46.976 293.715 46.976C297.171 46.976 300.355 47.712 303.267 49.184C306.179 50.656 308.483 52.672 310.179 55.232C311.875 57.76 312.723 60.528 312.723 63.536C312.723 66.512 311.875 69.264 310.179 71.792C308.483 74.32 306.179 76.32 303.267 77.792C300.355 79.264 297.171 80 293.715 80C290.291 80 287.123 79.264 284.211 77.792C281.299 76.32 278.995 74.32 277.299 71.792C275.603 69.264 274.755 66.512 274.755 63.536C274.755 60.528 275.603 57.76 277.299 55.232C278.995 52.672 281.299 50.656 284.211 49.184ZM293.763 78.752C296.835 78.752 299.459 77.264 301.635 74.288C303.811 71.28 304.899 67.68 304.899 63.488C304.899 59.264 303.811 55.664 301.635 52.688C299.459 49.68 296.819 48.176 293.715 48.176C290.643 48.176 288.019 49.68 285.843 52.688C283.667 55.664 282.579 59.264 282.579 63.488C282.579 66.24 283.075 68.8 284.067 71.168C285.059 73.504 286.403 75.36 288.099 76.736C289.827 78.08 291.715 78.752 293.763 78.752ZM329.112 46.976C332.472 47.008 335.352 47.92 337.752 49.712C340.152 51.504 341.368 53.68 341.4 56.24C341.464 58.224 340.776 60.016 339.336 61.616C337.928 63.216 336.072 64.384 333.768 65.12C332.584 65.504 330.232 65.712 326.712 65.744C325.944 65.808 325.256 66 324.648 66.32C324.072 66.64 323.64 66.992 323.352 67.376C323.064 67.728 322.824 68.144 322.632 68.624C322.472 69.104 322.376 69.456 322.344 69.68C322.312 69.904 322.296 70.096 322.296 70.256V74.816C322.36 76.704 322.648 78.176 323.16 79.232C323.192 79.36 323.192 79.488 323.16 79.616C323.128 79.712 323.064 79.808 322.968 79.904C322.872 79.968 322.744 80 322.584 80H315.192C314.968 80 314.792 79.92 314.664 79.76C314.536 79.6 314.52 79.424 314.616 79.232C315.128 78.176 315.416 76.72 315.48 74.864V52.16C315.416 50.272 315.128 48.8 314.616 47.744C314.52 47.584 314.536 47.424 314.664 47.264C314.792 47.072 314.968 46.976 315.192 46.976H329.016C329.016 46.976 329.032 46.976 329.064 46.976H329.112ZM331.608 63.68C332.568 63.008 333.32 62.016 333.864 60.704C334.408 59.36 334.664 57.904 334.632 56.336C334.568 54.128 333.992 52.24 332.904 50.672C331.848 49.104 330.584 48.288 329.112 48.224H322.296V52.16V66.944C322.296 66.88 322.328 66.8 322.392 66.704C322.488 66.608 322.664 66.432 322.92 66.176C323.208 65.888 323.512 65.648 323.832 65.456C324.184 65.232 324.664 65.04 325.272 64.88C325.912 64.688 326.6 64.576 327.336 64.544C327.4 64.544 327.448 64.544 327.48 64.544H328.392C329.768 64.512 330.808 64.256 331.512 63.776C331.576 63.744 331.608 63.712 331.608 63.68ZM385.128 46.976C385.448 46.976 385.64 47.12 385.704 47.408C385.8 47.664 385.72 47.856 385.464 47.984C383.256 49.2 381.352 50.784 379.752 52.736L372.408 61.856V63.488V75.584C372.472 77.12 372.744 78.336 373.224 79.232C373.32 79.424 373.304 79.6 373.176 79.76C373.048 79.92 372.872 80 372.648 80H365.352C365.128 80 364.952 79.92 364.824 79.76C364.728 79.6 364.728 79.424 364.824 79.232C365.304 78.336 365.576 77.12 365.64 75.584V63.488H365.688L357.528 50.48C356.92 49.616 356.088 48.768 355.032 47.936C354.808 47.776 354.744 47.584 354.84 47.36C354.936 47.104 355.128 46.976 355.416 46.976H364.584C364.776 46.976 364.936 47.056 365.064 47.216C365.192 47.344 365.224 47.504 365.16 47.696C365.032 48.112 364.968 48.528 364.968 48.944C365 49.552 365.176 50.176 365.496 50.816L371.352 60.224L379.128 50.576C379.768 49.616 379.736 48.704 379.032 47.84C378.904 47.68 378.888 47.504 378.984 47.312C379.112 47.088 379.304 46.976 379.56 46.976H385.128ZM391.367 49.184C394.279 47.712 397.447 46.976 400.871 46.976C404.327 46.976 407.511 47.712 410.423 49.184C413.335 50.656 415.639 52.672 417.335 55.232C419.031 57.76 419.879 60.528 419.879 63.536C419.879 66.512 419.031 69.264 417.335 71.792C415.639 74.32 413.335 76.32 410.423 77.792C407.511 79.264 404.327 80 400.871 80C397.447 80 394.279 79.264 391.367 77.792C388.455 76.32 386.151 74.32 384.455 71.792C382.759 69.264 381.911 66.512 381.911 63.536C381.911 60.528 382.759 57.76 384.455 55.232C386.151 52.672 388.455 50.656 391.367 49.184ZM400.919 78.752C403.991 78.752 406.615 77.264 408.791 74.288C410.967 71.28 412.055 67.68 412.055 63.488C412.055 59.264 410.967 55.664 408.791 52.688C406.615 49.68 403.975 48.176 400.871 48.176C397.799 48.176 395.175 49.68 392.999 52.688C390.823 55.664 389.735 59.264 389.735 63.488C389.735 66.24 390.231 68.8 391.223 71.168C392.215 73.504 393.559 75.36 395.255 76.736C396.983 78.08 398.871 78.752 400.919 78.752ZM450.765 46.928C451.021 46.928 451.197 47.056 451.293 47.312C451.421 47.536 451.373 47.728 451.149 47.888C449.229 49.328 448.269 50.992 448.269 52.88V56V69.584C448.269 72.304 447.597 74.512 446.253 76.208C445.613 77.072 444.797 77.792 443.805 78.368C442.845 78.912 441.901 79.296 440.973 79.52C440.077 79.712 439.213 79.856 438.381 79.952C437.549 80.048 436.893 80.08 436.413 80.048L435.645 80C433.533 80 431.661 79.744 430.029 79.232C428.237 78.688 426.749 77.856 425.565 76.736C425.469 76.64 425.389 76.56 425.325 76.496C424.909 76.08 424.525 75.632 424.173 75.152C423.053 73.424 422.445 71.184 422.349 68.432V52.16C422.285 50.272 421.997 48.8 421.485 47.744C421.389 47.584 421.405 47.424 421.533 47.264C421.661 47.072 421.837 46.976 422.061 46.976H429.453C429.677 46.976 429.853 47.072 429.981 47.264C430.109 47.424 430.125 47.584 430.029 47.744C429.517 48.8 429.229 50.272 429.165 52.16V69.68C429.165 70.832 429.277 71.872 429.501 72.8C429.757 73.696 430.077 74.432 430.461 75.008C430.845 75.584 431.277 76.096 431.757 76.544C432.237 76.96 432.701 77.28 433.149 77.504C433.629 77.696 434.061 77.856 434.445 77.984C434.861 78.08 435.181 78.144 435.405 78.176L435.789 78.224C437.133 78.224 438.365 78.096 439.485 77.84C440.605 77.552 441.517 77.2 442.221 76.784C442.925 76.368 443.533 75.888 444.045 75.344C444.589 74.768 444.989 74.24 445.245 73.76C445.533 73.248 445.757 72.704 445.917 72.128C446.077 71.552 446.173 71.12 446.205 70.832C446.237 70.544 446.253 70.272 446.253 70.016V69.824V56V52.88C446.221 51.152 445.213 49.488 443.229 47.888C443.005 47.728 442.941 47.536 443.037 47.312C443.165 47.056 443.357 46.928 443.613 46.928H450.765ZM477.716 77.696C478.004 78.208 478.34 78.688 478.724 79.136C478.884 79.296 478.9 79.488 478.772 79.712C478.676 79.904 478.5 80 478.244 80H477.476H471.092H470.708C470.484 80 470.308 79.904 470.18 79.712C470.052 79.488 470.068 79.296 470.228 79.136C470.996 78.208 471.22 77.152 470.9 75.968C470.26 73.632 468.036 72.24 464.228 71.792C462.34 71.536 461.092 70.96 460.484 70.064C460.484 70.128 460.484 70.192 460.484 70.256V74.816C460.548 76.704 460.836 78.176 461.348 79.232C461.38 79.36 461.38 79.488 461.348 79.616C461.316 79.712 461.252 79.808 461.156 79.904C461.06 79.968 460.932 80 460.772 80H453.38C453.156 80 452.98 79.92 452.852 79.76C452.724 79.6 452.708 79.424 452.804 79.232C453.316 78.176 453.604 76.72 453.668 74.864V52.16C453.604 50.272 453.316 48.8 452.804 47.744C452.708 47.584 452.724 47.424 452.852 47.264C452.98 47.072 453.156 46.976 453.38 46.976H467.204C467.204 46.976 467.22 46.976 467.252 46.976H467.3C470.66 47.008 473.54 47.92 475.94 49.712C478.34 51.504 479.556 53.68 479.588 56.24C479.652 58.224 478.964 60.016 477.524 61.616C476.116 63.216 474.26 64.384 471.956 65.12C470.772 65.504 468.42 65.712 464.9 65.744C463.78 65.808 462.868 66.144 462.164 66.752C461.716 67.264 461.508 67.712 461.54 68.096C461.604 68.448 461.844 68.736 462.26 68.96C462.676 69.184 463.092 69.36 463.508 69.488C463.956 69.584 464.34 69.648 464.66 69.68C470.068 69.776 473.812 71.328 475.892 74.336C475.924 74.368 475.956 74.416 475.988 74.48C476.308 74.96 476.58 75.488 476.804 76.064C477.188 76.832 477.492 77.376 477.716 77.696ZM460.484 52.16V64.112V66.944C460.484 66.944 460.516 66.88 460.58 66.752C460.676 66.592 460.852 66.4 461.108 66.176C461.364 65.92 461.668 65.68 462.02 65.456C462.404 65.232 462.9 65.04 463.508 64.88C464.116 64.688 464.788 64.576 465.524 64.544C465.588 64.544 465.636 64.544 465.668 64.544H466.58C467.956 64.512 468.996 64.256 469.7 63.776C469.764 63.744 469.796 63.712 469.796 63.68C470.756 63.008 471.508 62.016 472.052 60.704C472.596 59.36 472.852 57.904 472.82 56.336C472.756 54.128 472.18 52.24 471.092 50.672C470.036 49.104 468.772 48.288 467.3 48.224H460.484V52.16ZM505.35 66.224C505.926 66.992 506.326 67.856 506.55 68.816C506.774 69.744 506.87 70.4 506.838 70.784C506.838 71.136 506.806 71.424 506.742 71.648C505.942 75.424 503.158 77.968 498.39 79.28C496.566 79.76 494.662 80 492.678 80C492.55 80 492.406 80 492.246 80C488.534 79.744 485.526 78.688 483.222 76.832C482.55 76.288 482.022 75.728 481.638 75.152C481.062 74.352 480.838 73.552 480.966 72.752C481.062 72.144 481.334 71.6 481.782 71.12C482.262 70.608 482.838 70.256 483.51 70.064C483.83 69.968 484.166 69.904 484.518 69.872C484.71 69.84 484.902 69.84 485.094 69.872C485.158 69.872 485.222 69.872 485.286 69.872C485.478 69.904 485.654 69.936 485.814 69.968C486.646 70.128 487.334 70.512 487.878 71.12C488.454 71.728 488.758 72.416 488.79 73.184C488.822 73.696 488.742 74.192 488.55 74.672C488.486 74.672 488.438 74.816 488.406 75.104C488.406 75.392 488.486 75.664 488.646 75.92C489.478 77.072 490.614 77.792 492.054 78.08C492.918 78.176 493.75 78.176 494.55 78.08C495.35 77.952 496.086 77.68 496.758 77.264C497.462 76.848 498.006 76.288 498.39 75.584C499.126 74.336 499.302 73.2 498.918 72.176C498.406 70.896 497.382 69.744 495.846 68.72C494.822 68.08 493.286 67.248 491.238 66.224H491.142C488.358 64.944 486.358 63.888 485.142 63.056C484.982 62.96 484.902 62.912 484.902 62.912C484.262 62.528 483.686 62.096 483.174 61.616C482.31 60.816 481.702 59.888 481.35 58.832C480.998 57.776 480.854 56.944 480.918 56.336L481.014 55.376C481.814 51.568 484.598 49.024 489.366 47.744C491.19 47.232 493.094 46.976 495.078 46.976C495.206 46.976 495.35 46.976 495.51 46.976C499.222 47.232 502.23 48.304 504.534 50.192C505.206 50.736 505.734 51.28 506.118 51.824C506.694 52.656 506.918 53.456 506.79 54.224C506.694 54.864 506.406 55.424 505.926 55.904C505.478 56.384 504.918 56.736 504.246 56.96C503.926 57.056 503.59 57.104 503.238 57.104C503.046 57.136 502.854 57.152 502.662 57.152C502.598 57.152 502.534 57.136 502.47 57.104C502.278 57.104 502.102 57.088 501.942 57.056C501.398 56.928 500.902 56.704 500.454 56.384C500.006 56.064 499.654 55.68 499.398 55.232C499.142 54.784 498.998 54.304 498.966 53.792C498.934 53.28 499.014 52.784 499.206 52.304C499.27 52.304 499.318 52.16 499.35 51.872C499.35 51.584 499.27 51.312 499.11 51.056C498.598 50.352 497.942 49.808 497.142 49.424C495.67 48.688 494.102 48.592 492.438 49.136C490.774 49.68 489.638 50.64 489.03 52.016C488.454 53.328 488.55 54.56 489.318 55.712C490.054 56.8 491.206 57.808 492.774 58.736C493.606 59.248 494.95 59.952 496.806 60.848C498.374 61.552 499.558 62.128 500.358 62.576C501.574 63.216 502.582 63.824 503.382 64.4C504.182 64.944 504.838 65.552 505.35 66.224ZM532.816 74.528C532.976 74.304 533.2 74.224 533.488 74.288C533.808 74.352 533.968 74.528 533.968 74.816L531.904 80H509.536C509.312 80 509.136 79.92 509.008 79.76C508.88 79.6 508.864 79.424 508.96 79.232C509.472 78.176 509.76 76.72 509.824 74.864V52.16C509.76 50.272 509.472 48.8 508.96 47.744C508.896 47.616 508.88 47.504 508.912 47.408C508.944 47.28 509.008 47.184 509.104 47.12C509.232 47.024 509.376 46.976 509.536 46.976L531.904 46.928L533.968 52.16C533.968 52.448 533.808 52.624 533.488 52.688C533.2 52.752 532.976 52.672 532.816 52.448C531.28 49.984 529.392 48.752 527.152 48.752H516.64V63.872C516.64 63.84 516.656 63.808 516.688 63.776C516.72 63.712 516.8 63.616 516.928 63.488C517.056 63.328 517.184 63.184 517.312 63.056C517.44 62.896 517.632 62.736 517.888 62.576C518.144 62.416 518.4 62.288 518.656 62.192C518.944 62.064 519.28 61.968 519.664 61.904C520.048 61.808 520.464 61.76 520.912 61.76H524.032C526.208 61.76 527.936 61.264 529.216 60.272C529.408 60.144 529.6 60.128 529.792 60.224C529.984 60.288 530.08 60.416 530.08 60.608V64.592C530.08 64.784 529.968 64.928 529.744 65.024C529.552 65.088 529.376 65.056 529.216 64.928C528.064 64.032 526.544 63.552 524.656 63.488H520.864C520.096 63.552 519.424 63.744 518.848 64.064C518.304 64.384 517.872 64.768 517.552 65.216C517.264 65.664 517.04 66.064 516.88 66.416C516.752 66.768 516.672 67.136 516.64 67.52V74.864V78.224H527.152C529.392 78.224 531.28 76.992 532.816 74.528ZM550.126 78.224C550.99 78.224 551.79 78.192 552.526 78.128C553.262 78.064 553.886 78 554.398 77.936C554.91 77.84 555.406 77.696 555.886 77.504C556.398 77.28 556.766 77.12 556.99 77.024C557.246 76.928 557.55 76.72 557.902 76.4C558.254 76.08 558.462 75.888 558.526 75.824C558.622 75.728 558.83 75.488 559.15 75.104C559.47 74.72 559.662 74.496 559.726 74.432C559.854 74.304 560.014 74.24 560.206 74.24C560.398 74.24 560.542 74.32 560.638 74.48C560.766 74.608 560.798 74.768 560.734 74.96L558.718 80L536.302 79.952C536.078 79.952 535.902 79.872 535.774 79.712C535.646 79.552 535.63 79.376 535.726 79.184C536.238 78.128 536.526 76.672 536.59 74.816V52.112C536.526 50.224 536.238 48.752 535.726 47.696C535.63 47.536 535.646 47.376 535.774 47.216C535.902 47.024 536.078 46.928 536.302 46.928H543.694C543.918 46.928 544.094 47.024 544.222 47.216C544.35 47.376 544.366 47.536 544.27 47.696C543.758 48.752 543.47 50.224 543.406 52.112V71.024V74.816V78.224H550.126ZM584.732 46.928L586.796 52.16C586.796 52.448 586.636 52.624 586.316 52.688C586.028 52.752 585.804 52.672 585.644 52.448C584.108 49.984 582.22 48.752 579.98 48.752H569.468V63.824C569.468 63.792 569.484 63.76 569.516 63.728C569.548 63.664 569.628 63.568 569.756 63.44C569.884 63.28 570.028 63.136 570.188 63.008C570.348 62.88 570.556 62.736 570.812 62.576C571.068 62.416 571.34 62.288 571.628 62.192C571.948 62.064 572.3 61.968 572.684 61.904C573.1 61.808 573.532 61.76 573.98 61.76H576.86C579.036 61.76 580.764 61.264 582.044 60.272C582.236 60.144 582.428 60.128 582.62 60.224C582.812 60.288 582.908 60.416 582.908 60.608V64.592C582.908 64.784 582.796 64.928 582.572 65.024C582.38 65.088 582.204 65.056 582.044 64.928C580.892 64.032 579.372 63.552 577.484 63.488H574.46C573.532 63.488 572.732 63.648 572.06 63.968C571.388 64.256 570.892 64.624 570.572 65.072C570.252 65.52 569.996 65.968 569.804 66.416C569.612 66.864 569.5 67.248 569.468 67.568V68.048V74.672C569.5 76.624 569.788 78.144 570.332 79.232C570.428 79.424 570.412 79.6 570.284 79.76C570.156 79.92 569.98 80 569.756 80H562.364C562.14 80 561.964 79.92 561.836 79.76C561.708 79.6 561.692 79.424 561.788 79.232C562.3 78.176 562.588 76.72 562.652 74.864V52.16C562.588 50.272 562.3 48.8 561.788 47.744C561.692 47.584 561.708 47.424 561.836 47.264C561.964 47.072 562.14 46.976 562.364 46.976L584.732 46.928Z" fill="black"/>
<path d="M247.859 41.2H420.331V43.6H247.859V41.2ZM133.93 87.2H341.592V89.6H133.93V87.2Z" fill="black"/>
</svg>
