<svg width="30" height="30" viewBox="0 0 30 30" fill="none" xmlns="http://www.w3.org/2000/svg">
<path d="M0 0V30H30V0H0ZM17.355 23.775C16.6513 23.8479 15.94 23.7736 15.2666 23.5568C14.5931 23.34 13.9721 22.9854 13.443 22.5156C12.914 22.0458 12.4885 21.4711 12.1936 20.828C11.8987 20.1849 11.7408 19.4874 11.73 18.78V12.66H9.84V10.245C10.8701 9.84574 11.7632 9.15796 12.4123 8.26406C13.0615 7.37016 13.4391 6.30806 13.5 5.205C13.5 5.1692 13.5142 5.13486 13.5395 5.10954C13.5649 5.08422 13.5992 5.07 13.635 5.07H16.365V9.825H20.115V12.66H16.38V18.495C16.3524 18.7401 16.3796 18.9883 16.4596 19.2216C16.5396 19.4549 16.6705 19.6675 16.8428 19.8441C17.015 20.0206 17.2243 20.1567 17.4556 20.2425C17.6869 20.3282 17.9343 20.3615 18.18 20.34C18.6952 20.3168 19.2026 20.2051 19.68 20.01L20.58 22.68C19.6659 23.4104 18.5249 23.7978 17.355 23.775Z" fill="black"/>
</svg>
