<svg width="800" height="289" viewBox="0 0 800 289" fill="none" xmlns="http://www.w3.org/2000/svg">
<path d="M183.619 41.3505C185.258 41.3505 186.351 42.0792 186.897 43.5364C187.444 44.8116 187.08 45.9045 185.805 46.8154C174.875 55.0126 169.41 64.485 169.41 75.2325V199.558C169.41 210.305 170.958 218.867 174.055 225.242C174.602 226.335 174.511 227.337 173.782 228.248C173.053 229.159 172.051 229.614 170.776 229.614H123.779C122.686 229.614 121.775 229.341 121.046 228.794C120.5 228.066 120.226 227.246 120.226 226.335C120.773 219.595 118.769 212.764 114.215 205.842L30.0566 80.9706V196.005C30.0566 206.753 35.4304 216.134 46.1779 224.149C47.453 225.06 47.8173 226.244 47.2709 227.702C46.7244 228.977 45.6314 229.614 43.992 229.614H3.55215C1.91269 229.614 0.819726 228.977 0.273242 227.702C-0.273242 226.244 0 225.06 1.09297 224.149C12.387 215.041 18.2161 205.569 18.5805 195.732V76.5987C18.5805 63.1188 16.7588 53.0088 13.1156 46.2689C12.5691 45.1759 12.5691 44.174 13.1156 43.2632C13.8443 42.1702 14.8461 41.6238 16.1213 41.6238H62.0259C62.7546 41.6238 63.3921 41.897 63.9386 42.4435C64.6673 42.8078 65.1227 43.3543 65.3048 44.0829C65.487 44.6294 65.487 45.1759 65.3048 45.7224C62.5724 52.6445 63.21 60.5685 67.2175 69.4944L157.934 204.476C157.934 203.929 157.934 203.292 157.934 202.563V75.2325C157.752 65.3958 152.014 55.9234 140.72 46.8154C139.444 45.9045 139.08 44.8116 139.627 43.5364C140.355 42.0792 141.448 41.3505 142.906 41.3505H183.619Z" fill="#E87F12"/>
<path d="M306.363 177.258C306.909 178.351 306.818 179.444 306.09 180.537C305.361 181.63 304.268 182.176 302.811 182.176H263.191C261.733 182.176 260.549 181.63 259.638 180.537C258.91 179.444 258.819 178.351 259.365 177.258C261.369 172.886 262.735 167.239 263.464 160.317V158.678L263.191 159.224C255.722 173.25 242.515 180.81 223.57 181.903C223.024 181.903 222.113 181.903 220.838 181.903C218.106 181.903 215.373 181.63 212.641 181.083C209.908 180.355 206.629 179.171 202.804 177.531C198.979 175.892 195.518 173.25 192.421 169.607C189.324 165.964 187.047 161.501 185.59 156.218C184.679 151.118 184.224 142.921 184.224 131.627V97.4714V97.7446C184.224 97.5625 184.224 97.4714 184.224 97.4714V96.3784C184.041 85.6309 182.311 77.1604 179.032 70.9669C178.486 69.8739 178.486 68.872 179.032 67.9612C179.579 66.8683 180.489 66.1396 181.764 65.7753C193.058 63.2251 204.352 58.4889 215.646 51.5667C217.104 50.8381 218.561 50.8381 220.018 51.5667C221.476 52.1132 222.204 53.1151 222.204 54.5724V145.835C222.204 146.2 222.295 147.11 222.478 148.568C222.66 150.025 223.115 152.211 223.844 155.125C224.755 157.858 225.848 160.317 227.123 162.503C228.58 164.689 230.675 166.51 233.407 167.968C236.14 169.425 239.327 169.88 242.971 169.334C251.897 167.695 258.728 159.588 263.464 145.015V97.4714V97.7446C263.464 97.5625 263.464 97.4714 263.464 97.4714V96.3784C263.282 85.6309 261.642 77.1604 258.545 70.9669C257.999 69.8739 257.999 68.872 258.545 67.9612C259.092 66.8683 260.003 66.1396 261.278 65.7753C272.572 63.2251 283.866 58.4889 295.16 51.5667C296.435 50.8381 297.801 50.8381 299.259 51.5667C300.716 52.1132 301.444 53.1151 301.444 54.5724V66.8683L301.991 151.573C301.991 151.573 301.991 151.755 301.991 152.12C301.991 152.302 301.991 152.666 301.991 153.213C301.991 153.759 301.991 154.397 301.991 155.125C301.991 155.854 301.991 156.765 301.991 157.858C302.173 158.769 302.264 159.771 302.264 160.863C302.446 161.774 302.628 162.867 302.811 164.142C302.993 165.235 303.175 166.328 303.357 167.421C304.086 171.247 305.088 174.526 306.363 177.258Z" fill="#E87F12"/>
<path d="M435.861 143.998C444.24 146.913 450.434 152.196 454.441 159.847C458.449 167.315 459.633 175.057 457.994 183.072C457.447 185.258 456.718 187.353 455.808 189.357C451.071 199.922 442.146 207.846 429.03 213.129C415.914 218.594 402.161 221.326 387.77 221.326C376.841 221.326 366.549 219.778 356.894 216.681C344.143 212.855 333.851 207.026 326.018 199.193C318.185 191.36 314.268 182.708 314.268 173.235C314.268 165.585 317.001 158.298 322.466 151.376C320.097 147.368 318.64 143.179 318.094 138.807C318.094 138.443 318.094 138.26 318.094 138.26C317.547 130.61 320.553 122.686 327.111 114.488C328.932 112.302 331.027 110.025 333.395 107.657C323.194 98.9136 318.185 88.9858 318.367 77.8739C318.549 66.3978 324.196 56.3789 335.308 47.8173C346.602 39.2557 360.537 34.1552 377.114 32.5158C380.939 26.1401 385.676 20.6753 391.323 16.1213C396.97 11.5672 402.525 8.28833 407.99 6.28456C413.637 4.09862 418.191 2.64133 421.652 1.91269C425.296 1.00188 428.575 0.455397 431.489 0.273238C432.036 0.0910795 432.582 0 433.129 0H433.402C433.584 0 433.766 0 433.948 0C439.231 0 443.785 1.54837 447.61 4.6451C451.436 7.74185 453.348 11.4762 453.348 15.848C453.348 20.2199 451.436 23.9542 447.61 27.051C443.785 30.1477 439.231 31.6961 433.948 31.6961C429.212 31.6961 425.022 30.512 421.379 28.1439C417.918 25.7758 415.732 22.7702 414.821 19.1269C402.617 19.1269 392.962 23.4077 385.858 31.9693C386.951 31.9693 387.861 31.9693 388.59 31.9693C407.899 32.1515 424.203 36.9787 437.5 46.4511C450.798 55.7413 457.265 66.8532 456.901 79.7866C456.718 92.7201 449.705 103.65 435.861 112.576C422.199 121.502 405.804 125.873 386.677 125.691C372.833 125.509 360.082 122.686 348.424 117.221C348.241 118.678 348.332 120.135 348.697 121.593C348.879 122.868 349.243 124.143 349.79 125.418C350.336 126.693 350.974 127.877 351.702 128.97C352.613 130.063 353.615 131.065 354.708 131.976C355.801 132.887 356.894 133.706 357.987 134.435C359.262 135.164 360.628 135.801 362.086 136.348C366.275 138.169 372.651 139.171 381.213 139.353C385.402 139.353 389.956 139.353 394.875 139.353C399.793 139.353 404.438 139.444 408.81 139.627C413.182 139.627 417.736 139.991 422.472 140.72C427.391 141.448 431.853 142.541 435.861 143.998ZM356.348 78.4204C356.348 83.1566 356.894 87.8017 357.987 92.3558C358.534 94.906 359.353 97.2741 360.446 99.4601C363.179 105.471 366.822 110.299 371.376 113.942C376.112 117.585 381.304 119.407 386.951 119.407C393.326 119.589 399.247 117.312 404.711 112.576C407.262 110.39 409.539 107.748 411.542 104.652C416.279 97.3652 418.829 88.9858 419.193 79.5134C419.375 68.2194 416.461 58.5648 410.449 50.5498C404.438 42.5347 397.061 38.5271 388.317 38.5271C379.755 38.3449 372.287 42.1703 365.911 50.0033C359.718 57.8362 356.53 67.3086 356.348 78.4204ZM422.199 198.1C424.931 194.275 425.751 190.267 424.658 186.078C423.201 178.973 417.007 174.328 406.078 172.142C402.434 171.414 398.245 170.958 393.508 170.776C391.869 170.776 390.139 170.776 388.317 170.776C386.495 170.776 384.491 170.685 382.306 170.503C380.12 170.503 378.389 170.503 377.114 170.503C375.475 170.321 373.106 170.23 370.01 170.23C364.363 170.23 360.082 170.139 357.167 169.956C354.253 169.956 350.518 169.41 345.964 168.317C341.41 167.406 337.585 166.04 334.488 164.218C332.484 162.761 330.481 161.122 328.477 159.3C328.295 159.482 328.113 159.847 327.93 160.393C324.105 165.494 323.103 171.232 324.925 177.607C327.111 185.805 331.756 192.727 338.86 198.374C345.964 204.021 353.979 207.937 362.905 210.123C372.013 212.309 381.122 212.764 390.23 211.489C406.988 209.485 417.645 205.023 422.199 198.1Z" fill="#E87F12"/>
<path d="M579.182 210.761C587.561 213.675 593.755 218.958 597.762 226.609C601.77 234.077 602.954 241.819 601.314 249.834C600.768 252.02 600.039 254.115 599.128 256.119C594.392 266.684 585.466 274.608 572.351 279.891C559.235 285.356 545.482 288.088 531.091 288.088C520.162 288.088 509.869 286.54 500.215 283.443C487.464 279.618 477.172 273.788 469.339 265.955C461.506 258.122 457.589 249.47 457.589 239.997C457.589 232.347 460.322 225.06 465.786 218.138C463.418 214.131 461.961 209.941 461.415 205.569C461.415 205.205 461.415 205.022 461.415 205.022C460.868 197.372 463.874 189.448 470.432 181.25C472.253 179.064 474.348 176.787 476.716 174.419C466.515 165.676 461.506 155.748 461.688 144.636C461.87 133.16 467.517 123.141 478.629 114.579C489.923 106.018 503.858 100.917 520.435 99.2778C524.26 92.9022 528.996 87.4374 534.643 82.8833C540.29 78.3293 545.846 75.0504 551.311 73.0466C556.958 70.8607 561.512 69.4034 564.973 68.6748C568.616 67.7639 571.895 67.2175 574.81 67.0353C575.357 66.8531 575.903 66.7621 576.449 66.7621H576.723C576.905 66.7621 577.087 66.7621 577.269 66.7621C582.552 66.7621 587.106 68.3104 590.931 71.4072C594.757 74.5039 596.669 78.2382 596.669 82.6101C596.669 86.982 594.757 90.7163 590.931 93.813C587.106 96.9098 582.552 98.4581 577.269 98.4581C572.533 98.4581 568.343 97.2741 564.7 94.906C561.239 92.5379 559.053 89.5322 558.142 85.889C545.937 85.889 536.283 90.1698 529.179 98.7314C530.272 98.7314 531.182 98.7314 531.911 98.7314C551.22 98.9135 567.524 103.741 580.821 113.213C594.119 122.503 600.586 133.615 600.221 146.549C600.039 159.482 593.026 170.412 579.182 179.338C565.52 188.264 549.125 192.636 529.998 192.453C516.154 192.271 503.403 189.448 491.744 183.983C491.562 185.44 491.653 186.897 492.018 188.355C492.2 189.63 492.564 190.905 493.111 192.18C493.657 193.455 494.295 194.639 495.023 195.732C495.934 196.825 496.936 197.827 498.029 198.738C499.122 199.649 500.215 200.468 501.308 201.197C502.583 201.926 503.949 202.563 505.407 203.11C509.596 204.931 515.972 205.933 524.534 206.115C528.723 206.115 533.277 206.115 538.196 206.115C543.114 206.115 547.759 206.207 552.131 206.389C556.503 206.389 561.057 206.753 565.793 207.482C570.711 208.21 575.174 209.303 579.182 210.761ZM499.668 145.182C499.668 149.919 500.215 154.564 501.308 159.118C501.854 161.668 502.674 164.036 503.767 166.222C506.5 172.233 510.143 177.061 514.697 180.704C519.433 184.347 524.625 186.169 530.272 186.169C536.647 186.351 542.567 184.074 548.032 179.338C550.583 177.152 552.86 174.51 554.863 171.414C559.6 164.127 562.15 155.748 562.514 146.275C562.696 134.981 559.782 125.327 553.77 117.312C547.759 109.297 540.382 105.289 531.638 105.289C523.076 105.107 515.608 108.932 509.232 116.765C503.038 124.598 499.851 134.071 499.668 145.182ZM565.52 264.862C568.252 261.037 569.072 257.03 567.979 252.84C566.522 245.736 560.328 241.09 549.398 238.904C545.755 238.176 541.566 237.72 536.829 237.538C535.19 237.538 533.459 237.538 531.638 237.538C529.816 237.538 527.812 237.447 525.626 237.265C523.44 237.265 521.71 237.265 520.435 237.265C518.795 237.083 516.427 236.992 513.331 236.992C507.684 236.992 503.403 236.901 500.488 236.719C497.574 236.719 493.839 236.172 489.285 235.079C484.731 234.168 480.906 232.802 477.809 230.98C475.805 229.523 473.802 227.884 471.798 226.062C471.616 226.244 471.433 226.609 471.251 227.155C467.426 232.256 466.424 237.994 468.246 244.369C470.432 252.567 475.077 259.489 482.181 265.136C489.285 270.783 497.3 274.699 506.226 276.885C515.334 279.071 524.442 279.526 533.55 278.251C550.309 276.248 560.966 271.785 565.52 264.862Z" fill="#E87F12"/>
<path d="M704.896 179.899C697.609 196.658 674.566 204.036 635.766 202.032C636.676 215.33 640.866 226.533 648.335 235.641C655.803 244.749 664.638 249.303 674.839 249.303C683.219 249.303 690.869 246.024 697.791 239.466C697.974 239.102 698.247 238.92 698.611 238.92H703.803C704.349 238.92 704.714 239.193 704.896 239.739C705.078 240.104 704.987 240.377 704.622 240.559C692.6 254.586 677.754 261.599 660.084 261.599C643.325 261.599 629.025 255.223 617.185 242.472C605.344 229.721 599.424 214.328 599.424 196.294C599.424 178.26 605.344 162.867 617.185 150.116C629.025 137.183 643.325 130.716 660.084 130.716C672.471 130.716 682.945 133.995 691.507 140.553C693.693 142.01 695.605 143.649 697.245 145.471C701.617 150.207 704.531 155.672 705.989 161.865C707.628 167.877 707.264 173.888 704.896 179.899ZM635.492 195.201C635.857 195.383 636.403 195.474 637.132 195.474C638.042 195.474 639.682 195.474 642.05 195.474C644.418 195.474 646.695 195.383 648.881 195.201C651.249 195.019 653.982 194.654 657.078 194.108C660.175 193.379 662.999 192.469 665.549 191.376C668.099 190.283 670.649 188.825 673.2 187.004C675.932 185.182 678.118 183.087 679.757 180.719C681.397 178.169 682.672 175.163 683.583 171.702C684.494 168.059 684.676 164.051 684.129 159.679V159.406C683.583 153.395 681.033 149.114 676.479 146.564C671.924 143.831 666.824 143.831 661.177 146.564C653.708 150.207 647.606 156.492 642.87 165.418C638.134 174.343 635.674 184.271 635.492 195.201Z" fill="#E87F12"/>
<path d="M800 226.76C800 227.307 799.818 227.853 799.454 228.4C794.899 236.779 787.431 241.971 777.048 243.975C772.129 244.703 767.211 244.885 762.293 244.521C754.46 243.975 747.082 241.789 740.16 237.963C733.42 233.956 728.046 228.309 724.039 221.022C722.217 217.743 720.76 214.282 719.667 210.639C719.12 209 718.574 205.903 718.027 201.349C717.117 196.431 716.57 191.33 716.388 186.047V144.515C716.388 144.332 716.388 144.241 716.388 144.241V130.852H707.098C706.551 130.852 706.005 130.761 705.458 130.579C704.912 130.215 704.456 129.851 704.092 129.486C703.91 128.94 703.819 128.393 703.819 127.847V125.114C703.819 123.293 704.821 122.291 706.824 122.109C710.286 122.109 713.473 121.744 716.388 121.016C722.035 119.923 726.953 118.01 731.143 115.278C735.333 112.363 738.338 109.631 740.16 107.08C741.982 104.348 743.803 102.071 745.625 100.249C747.629 98.2456 749.45 97.4259 751.09 97.7902C753.276 98.1545 754.369 99.3386 754.369 101.342V122.109H764.752C766.573 122.109 767.484 122.928 767.484 124.568V128.393C767.484 130.033 766.573 130.852 764.752 130.852H754.369V191.512C754.369 192.059 754.369 192.787 754.369 193.698C754.369 194.427 754.369 195.338 754.369 196.431C754.369 197.341 754.369 197.979 754.369 198.343C754.369 200.347 754.46 202.806 754.642 205.721C756.646 223.208 762.657 232.134 772.676 232.498C774.862 232.498 777.048 232.225 779.234 231.679C781.237 231.314 783.514 230.586 786.065 229.493C788.615 228.218 790.71 227.034 792.349 225.941L794.535 224.574C795.81 224.028 796.903 224.028 797.814 224.574C798.907 224.939 799.636 225.667 800 226.76Z" fill="#E87F12"/>
<path d="M353.742 224.87C311.048 224.87 311.048 224.87 311.048 273.257C311.048 224.87 311.048 224.87 268.354 224.87C311.048 224.87 311.048 224.87 311.048 176.484C311.048 224.87 311.048 224.87 353.742 224.87Z" fill="#E87F12"/>
<path d="M463.798 250.487C423.001 250.487 423.001 250.487 423.001 288.437C423.001 250.487 423.001 250.487 382.205 250.487C423.001 250.487 423.001 250.487 423.001 212.537C423.001 250.487 423.001 250.487 463.798 250.487Z" fill="#E87F12"/>
<path d="M657.344 104.378C616.548 104.378 616.548 104.378 616.548 142.329C616.548 104.378 616.548 104.378 575.751 104.378C616.548 104.378 616.548 104.378 616.548 66.4281C616.548 104.378 616.548 104.378 657.344 104.378Z" fill="#E87F12"/>
<path d="M528.313 64.5306C487.517 64.5306 487.517 64.5306 487.517 102.481C487.517 64.5306 487.517 64.5306 446.72 64.5306C487.517 64.5306 487.517 64.5306 487.517 26.5803C487.517 64.5306 487.517 64.5306 528.313 64.5306Z" fill="#E87F12"/>
</svg>
