<svg width="201" height="23" viewBox="0 0 201 23" fill="none" xmlns="http://www.w3.org/2000/svg">
<path d="M24.808 0.487999C24.952 0.487999 25.048 0.552 25.096 0.68C25.144 0.791999 25.12 0.887999 25.024 0.967999C24.48 1.416 24 2.088 23.584 2.984L19.264 13.712C18.912 14.88 18.88 15.856 19.168 16.64C19.2 16.736 19.184 16.824 19.12 16.904C19.056 16.968 18.976 17 18.88 17H14.2C14.088 17 14 16.968 13.936 16.904C13.872 16.824 13.856 16.736 13.888 16.64C14.144 15.936 14.136 15.056 13.864 14L12.544 9.584L10.888 13.712C10.536 14.88 10.504 15.856 10.792 16.64C10.824 16.736 10.808 16.824 10.744 16.904C10.68 16.968 10.6 17 10.504 17H5.8C5.704 17 5.624 16.968 5.56 16.904C5.496 16.824 5.48 16.736 5.512 16.64C5.768 15.936 5.76 15.056 5.488 14L2.248 3.272C2.152 2.968 1.968 2.584 1.696 2.12C1.424 1.656 1.152 1.264 0.88 0.943999C0.8 0.848 0.792 0.751999 0.856 0.655999C0.904 0.543999 0.992 0.487999 1.12 0.487999H5.2C5.296 0.487999 5.376 0.527999 5.44 0.607999C5.504 0.671999 5.52 0.743999 5.488 0.823999C5.36 1.336 5.352 1.824 5.464 2.288L9.304 15.008L12.088 8.072L10.624 3.272C10.528 2.968 10.344 2.584 10.072 2.12C9.8 1.656 9.528 1.264 9.256 0.943999C9.176 0.848 9.16 0.751999 9.208 0.655999C9.272 0.543999 9.368 0.487999 9.496 0.487999H15.712C15.872 0.487999 15.968 0.559999 16 0.704C16.048 0.848 16 0.952 15.856 1.016C15.616 1.128 15.408 1.248 15.232 1.376C15.056 1.504 14.888 1.672 14.728 1.88C14.568 2.088 14.448 2.32 14.368 2.576C14.304 2.832 14.28 3.152 14.296 3.536C14.328 3.904 14.424 4.312 14.584 4.76L17.68 15.008L22.504 2.96C22.872 2.16 22.76 1.496 22.168 0.967999C22.072 0.871999 22.048 0.767999 22.096 0.655999C22.144 0.543999 22.24 0.487999 22.384 0.487999H24.808ZM32.8668 9.8C32.2268 11.272 30.2028 11.92 26.7948 11.744C26.8748 12.912 27.2428 13.896 27.8988 14.696C28.5548 15.496 29.3308 15.896 30.2268 15.896C30.9628 15.896 31.6348 15.608 32.2428 15.032C32.2588 15 32.2828 14.984 32.3148 14.984H32.7708C32.8188 14.984 32.8508 15.008 32.8668 15.056C32.8828 15.088 32.8748 15.112 32.8428 15.128C31.7868 16.36 30.4828 16.976 28.9308 16.976C27.4588 16.976 26.2028 16.416 25.1628 15.296C24.1228 14.176 23.6028 12.824 23.6028 11.24C23.6028 9.656 24.1228 8.304 25.1628 7.184C26.2028 6.048 27.4588 5.48 28.9308 5.48C30.0188 5.48 30.9388 5.768 31.6908 6.344C31.8828 6.472 32.0508 6.616 32.1948 6.776C32.5788 7.192 32.8348 7.672 32.9628 8.216C33.1068 8.744 33.0748 9.272 32.8668 9.8ZM26.7708 11.144C26.8028 11.16 26.8508 11.168 26.9148 11.168C26.9948 11.168 27.1388 11.168 27.3468 11.168C27.5548 11.168 27.7548 11.16 27.9468 11.144C28.1548 11.128 28.3948 11.096 28.6668 11.048C28.9388 10.984 29.1868 10.904 29.4108 10.808C29.6348 10.712 29.8588 10.584 30.0828 10.424C30.3228 10.264 30.5148 10.08 30.6588 9.872C30.8028 9.648 30.9148 9.384 30.9948 9.08C31.0748 8.76 31.0908 8.408 31.0428 8.024V8C30.9948 7.472 30.7708 7.096 30.3708 6.872C29.9708 6.632 29.5228 6.632 29.0268 6.872C28.3708 7.192 27.8348 7.744 27.4188 8.528C27.0028 9.312 26.7868 10.184 26.7708 11.144ZM38.1415 16.568C38.1735 16.616 38.1815 16.664 38.1655 16.712C38.1655 16.76 38.1495 16.808 38.1175 16.856C38.0855 16.904 38.0455 16.944 37.9975 16.976C37.9495 16.992 37.8935 17 37.8295 17H34.3495C34.2215 17 34.1175 16.952 34.0375 16.856C33.9735 16.76 33.9655 16.664 34.0135 16.568C34.2695 16.024 34.4055 15.304 34.4215 14.408V14.312V4.496V4.4C34.4055 3.456 34.2535 2.712 33.9655 2.168C33.9175 2.072 33.9175 1.984 33.9655 1.904C34.0135 1.808 34.0935 1.744 34.2055 1.712C35.1975 1.488 36.1895 1.072 37.1815 0.464C37.3095 0.4 37.4375 0.4 37.5655 0.464C37.6935 0.511999 37.7575 0.599999 37.7575 0.727999V13.688V13.712C37.7575 13.76 37.7575 13.824 37.7575 13.904C37.7575 13.968 37.7575 14.04 37.7575 14.12C37.7575 14.2 37.7575 14.264 37.7575 14.312C37.7415 15.208 37.8695 15.96 38.1415 16.568ZM47.8304 6.488C47.9264 6.552 48.0304 6.64 48.1424 6.752C48.2704 6.848 48.4144 7.024 48.5744 7.28C48.7504 7.536 48.8224 7.776 48.7904 8C48.7264 8.304 48.5584 8.56 48.2864 8.768C48.0144 8.96 47.6944 9.048 47.3264 9.032C47.1024 9.016 46.8944 8.96 46.7024 8.864C46.5104 8.752 46.3584 8.608 46.2464 8.432C46.1344 8.256 46.0704 8.072 46.0544 7.88C46.0384 7.56 46.1344 7.28 46.3424 7.04C46.3424 7.04 46.3504 7.032 46.3664 7.016C46.3824 6.984 46.3984 6.944 46.4144 6.896C46.4464 6.848 46.4624 6.808 46.4624 6.776C46.4624 6.728 46.4384 6.688 46.3904 6.656C46.3424 6.624 46.2704 6.6 46.1744 6.584C46.1264 6.584 46.0864 6.584 46.0544 6.584C45.3984 6.584 44.7904 6.792 44.2304 7.208C43.6704 7.624 43.2224 8.192 42.8864 8.912C42.5664 9.632 42.4064 10.408 42.4064 11.24C42.4064 12.504 42.7504 13.592 43.4384 14.504C44.1264 15.4 44.9584 15.872 45.9344 15.92C45.9664 15.92 45.9904 15.92 46.0064 15.92H46.0304C46.7824 15.92 47.4544 15.624 48.0464 15.032C48.0784 15.016 48.1104 15.008 48.1424 15.008H48.5984C48.6304 15.008 48.6544 15.024 48.6704 15.056C48.7024 15.088 48.7024 15.12 48.6704 15.152C48.2544 15.632 47.7824 16.024 47.2544 16.328C46.9824 16.504 46.6464 16.648 46.2464 16.76C45.7664 16.92 45.2704 17 44.7584 17C44.7584 17 44.7504 17 44.7344 17C44.7184 17 44.7104 17 44.7104 17C44.7104 17 44.7024 17 44.6864 17C43.1504 17 41.8304 16.44 40.7264 15.32C39.6384 14.2 39.0944 12.84 39.0944 11.24C39.0944 10.2 39.3424 9.24 39.8384 8.36C40.3344 7.48 41.0144 6.784 41.8784 6.272C42.7424 5.76 43.6784 5.504 44.6864 5.504C45.8384 5.504 46.8864 5.832 47.8304 6.488ZM55.5805 5.504C57.3725 5.504 58.9005 6.064 60.1645 7.184C61.4285 8.304 62.0605 9.664 62.0605 11.264C62.0605 12.848 61.4285 14.2 60.1645 15.32C58.9005 16.44 57.3725 17 55.5805 17C53.8045 17 52.2845 16.44 51.0205 15.32C49.7725 14.2 49.1485 12.848 49.1485 11.264C49.1485 9.664 49.7725 8.304 51.0205 7.184C52.2845 6.064 53.8045 5.504 55.5805 5.504ZM55.5325 16.496C56.0925 16.496 56.6125 16.272 57.0925 15.824C57.5725 15.36 57.9485 14.728 58.2205 13.928C58.4925 13.128 58.6285 12.264 58.6285 11.336C58.6285 9.896 58.3245 8.672 57.7165 7.664C57.1085 6.656 56.3725 6.152 55.5085 6.152C54.6605 6.152 53.9325 6.656 53.3245 7.664C52.7165 8.672 52.4125 9.896 52.4125 11.336C52.4125 12.76 52.7165 13.976 53.3245 14.984C53.9325 15.992 54.6685 16.496 55.5325 16.496ZM81.1983 16.616C81.2463 16.712 81.2383 16.8 81.1743 16.88C81.1103 16.96 81.0223 17 80.9103 17H80.7903H77.4543H77.3103C77.1983 17 77.1103 16.96 77.0463 16.88C76.9983 16.8 76.9983 16.712 77.0463 16.616C77.2863 16.136 77.4223 15.472 77.4543 14.624V8.672C77.4543 8.624 77.4463 8.544 77.4303 8.432C77.4143 8.304 77.3663 8.12 77.2863 7.88C77.2223 7.624 77.1263 7.4 76.9983 7.208C76.8863 7.016 76.7103 6.856 76.4703 6.728C76.2303 6.6 75.9503 6.56 75.6302 6.608C74.7663 6.752 74.1263 7.584 73.7103 9.104V14.816C73.7583 15.568 73.8943 16.168 74.1183 16.616C74.1663 16.712 74.1583 16.8 74.0943 16.88C74.0303 16.96 73.9423 17 73.8303 17H73.7103H70.3743H70.2303C70.1183 17 70.0303 16.96 69.9663 16.88C69.9183 16.8 69.9103 16.712 69.9423 16.616C70.0863 16.344 70.1903 16.016 70.2543 15.632C70.3183 15.248 70.3583 14.936 70.3743 14.696V14.312V8.672C70.3743 8.624 70.3663 8.544 70.3503 8.432C70.3343 8.304 70.2863 8.12 70.2063 7.88C70.1423 7.624 70.0463 7.4 69.9183 7.208C69.8063 7.016 69.6303 6.856 69.3903 6.728C69.1503 6.6 68.8703 6.56 68.5503 6.608C67.7503 6.752 67.1503 7.464 66.7503 8.744V13.688V13.712C66.7503 13.76 66.7503 13.824 66.7503 13.904C66.7503 13.968 66.7503 14.04 66.7503 14.12C66.7503 14.2 66.7503 14.264 66.7503 14.312C66.7343 15.208 66.8623 15.96 67.1343 16.568C67.1983 16.664 67.1903 16.76 67.1103 16.856C67.0463 16.952 66.9503 17 66.8223 17H63.3423C63.2143 17 63.1103 16.952 63.0303 16.856C62.9663 16.76 62.9583 16.664 63.0063 16.568C63.2623 16.024 63.3983 15.304 63.4143 14.408V14.312V9.56V9.584C63.4143 9.568 63.4143 9.56 63.4143 9.56V9.464C63.3983 8.52 63.2463 7.776 62.9583 7.232C62.9103 7.136 62.9103 7.048 62.9583 6.968C63.0063 6.872 63.0863 6.808 63.1982 6.776C64.1903 6.552 65.1823 6.136 66.1743 5.528C66.3023 5.464 66.4303 5.464 66.5583 5.528C66.6863 5.576 66.7503 5.664 66.7503 5.792V7.544L66.7743 7.496C67.4303 6.264 68.5823 5.6 70.2303 5.504C70.2943 5.504 70.3823 5.504 70.4943 5.504C70.7343 5.504 70.9823 5.536 71.2383 5.6C71.4943 5.664 71.7983 5.776 72.1503 5.936C72.5023 6.08 72.8063 6.336 73.0623 6.704C73.3343 7.056 73.5263 7.488 73.6383 8C73.7183 7.744 73.8303 7.504 73.9743 7.28C74.1343 7.04 74.3503 6.784 74.6223 6.512C74.8943 6.24 75.2623 6.016 75.7263 5.84C76.1903 5.648 76.7183 5.536 77.3103 5.504C77.3743 5.504 77.4623 5.504 77.5743 5.504C77.7823 5.504 77.9903 5.528 78.1983 5.576C78.4223 5.608 78.6943 5.696 79.0143 5.84C79.3503 5.984 79.6383 6.168 79.8783 6.392C80.1343 6.616 80.3503 6.944 80.5263 7.376C80.7023 7.808 80.7903 8.304 80.7903 8.864V14.72C80.8223 15.52 80.9583 16.152 81.1983 16.616ZM91.3668 9.8C90.7268 11.272 88.7028 11.92 85.2948 11.744C85.3748 12.912 85.7428 13.896 86.3988 14.696C87.0548 15.496 87.8308 15.896 88.7268 15.896C89.4628 15.896 90.1348 15.608 90.7428 15.032C90.7588 15 90.7828 14.984 90.8148 14.984H91.2708C91.3188 14.984 91.3508 15.008 91.3668 15.056C91.3828 15.088 91.3748 15.112 91.3428 15.128C90.2868 16.36 88.9828 16.976 87.4308 16.976C85.9588 16.976 84.7028 16.416 83.6628 15.296C82.6228 14.176 82.1028 12.824 82.1028 11.24C82.1028 9.656 82.6228 8.304 83.6628 7.184C84.7028 6.048 85.9588 5.48 87.4308 5.48C88.5188 5.48 89.4388 5.768 90.1908 6.344C90.3828 6.472 90.5508 6.616 90.6948 6.776C91.0788 7.192 91.3348 7.672 91.4628 8.216C91.6068 8.744 91.5748 9.272 91.3668 9.8ZM85.2708 11.144C85.3028 11.16 85.3508 11.168 85.4148 11.168C85.4948 11.168 85.6388 11.168 85.8468 11.168C86.0548 11.168 86.2548 11.16 86.4468 11.144C86.6548 11.128 86.8948 11.096 87.1668 11.048C87.4388 10.984 87.6868 10.904 87.9108 10.808C88.1348 10.712 88.3588 10.584 88.5828 10.424C88.8228 10.264 89.0148 10.08 89.1588 9.872C89.3028 9.648 89.4148 9.384 89.4948 9.08C89.5748 8.76 89.5908 8.408 89.5428 8.024V8C89.4948 7.472 89.2708 7.096 88.8708 6.872C88.4708 6.632 88.0228 6.632 87.5268 6.872C86.8708 7.192 86.3348 7.744 85.9188 8.528C85.5028 9.312 85.2868 10.184 85.2708 11.144ZM107.421 15.416C107.421 15.464 107.405 15.512 107.373 15.56C106.973 16.296 106.317 16.752 105.405 16.928C104.973 16.992 104.541 17.008 104.109 16.976C103.421 16.928 102.773 16.736 102.165 16.4C101.573 16.048 101.101 15.552 100.749 14.912C100.589 14.624 100.461 14.32 100.365 14C100.317 13.856 100.269 13.584 100.221 13.184C100.141 12.752 100.093 12.304 100.077 11.84V8.192C100.077 8.176 100.077 8.168 100.077 8.168V8.096V6.992H99.2607C99.2127 6.992 99.1647 6.984 99.1167 6.968C99.0687 6.936 99.0287 6.904 98.9967 6.872C98.9807 6.824 98.9727 6.776 98.9727 6.728V6.488C98.9727 6.328 99.0607 6.24 99.2367 6.224C99.5407 6.224 99.8207 6.192 100.077 6.128C100.573 6.032 101.005 5.864 101.373 5.624C101.741 5.368 102.005 5.128 102.165 4.904C102.325 4.664 102.485 4.464 102.645 4.304C102.821 4.128 102.981 4.056 103.125 4.088C103.317 4.12 103.413 4.224 103.413 4.4V6.224H104.325C104.485 6.224 104.565 6.296 104.565 6.44V6.776C104.565 6.92 104.485 6.992 104.325 6.992H103.413V12.296V12.32C103.413 12.368 103.413 12.432 103.413 12.512C103.413 12.576 103.413 12.656 103.413 12.752C103.413 12.832 103.413 12.888 103.413 12.92C103.413 13.096 103.421 13.312 103.437 13.568C103.613 15.104 104.141 15.888 105.021 15.92C105.213 15.92 105.405 15.896 105.597 15.848C105.773 15.816 105.973 15.752 106.197 15.656C106.421 15.544 106.605 15.44 106.749 15.344L106.941 15.224C107.053 15.176 107.149 15.176 107.229 15.224C107.325 15.256 107.389 15.32 107.421 15.416ZM113.541 5.504C115.333 5.504 116.861 6.064 118.125 7.184C119.389 8.304 120.021 9.664 120.021 11.264C120.021 12.848 119.389 14.2 118.125 15.32C116.861 16.44 115.333 17 113.541 17C111.765 17 110.245 16.44 108.981 15.32C107.733 14.2 107.109 12.848 107.109 11.264C107.109 9.664 107.733 8.304 108.981 7.184C110.245 6.064 111.765 5.504 113.541 5.504ZM113.493 16.496C114.053 16.496 114.573 16.272 115.053 15.824C115.533 15.36 115.909 14.728 116.181 13.928C116.453 13.128 116.589 12.264 116.589 11.336C116.589 9.896 116.285 8.672 115.677 7.664C115.069 6.656 114.333 6.152 113.469 6.152C112.621 6.152 111.893 6.656 111.285 7.664C110.677 8.672 110.373 9.896 110.373 11.336C110.373 12.76 110.677 13.976 111.285 14.984C111.893 15.992 112.629 16.496 113.493 16.496ZM143.458 0.464C143.602 0.464 143.698 0.527999 143.746 0.655999C143.794 0.767999 143.762 0.863999 143.65 0.943999C142.69 1.664 142.21 2.496 142.21 3.44V7.976V14.36C142.21 15.304 142.346 16.056 142.618 16.616C142.666 16.712 142.658 16.8 142.594 16.88C142.53 16.96 142.442 17 142.33 17H138.202C138.106 17 138.026 16.976 137.962 16.928C137.914 16.864 137.89 16.792 137.89 16.712C137.938 16.12 137.762 15.52 137.362 14.912L129.97 3.944V14.048C129.97 14.992 130.442 15.816 131.386 16.52C131.498 16.6 131.53 16.704 131.482 16.832C131.434 16.944 131.338 17 131.194 17H127.642C127.498 17 127.402 16.944 127.354 16.832C127.306 16.704 127.33 16.6 127.426 16.52C128.418 15.72 128.93 14.888 128.962 14.024V9.488V3.56C128.962 2.376 128.802 1.488 128.482 0.896C128.434 0.799999 128.434 0.711999 128.482 0.631999C128.546 0.535999 128.634 0.487999 128.746 0.487999H132.778C132.842 0.487999 132.898 0.511999 132.946 0.559999C133.01 0.591999 133.05 0.639999 133.066 0.704C133.082 0.751999 133.082 0.799999 133.066 0.847999C132.826 1.456 132.882 2.152 133.234 2.936L141.202 14.792C141.202 14.744 141.202 14.688 141.202 14.624V3.44C141.186 2.576 140.682 1.744 139.69 0.943999C139.578 0.863999 139.546 0.767999 139.594 0.655999C139.658 0.527999 139.754 0.464 139.882 0.464H143.458ZM154.906 16.568C154.954 16.664 154.946 16.76 154.882 16.856C154.818 16.952 154.722 17 154.594 17H151.114C150.986 17 150.882 16.952 150.802 16.856C150.738 16.76 150.73 16.664 150.778 16.568C150.954 16.184 151.074 15.688 151.138 15.08V14.936L151.114 14.984C150.458 16.216 149.298 16.88 147.634 16.976C147.586 16.976 147.506 16.976 147.394 16.976C147.154 16.976 146.914 16.952 146.674 16.904C146.434 16.84 146.146 16.736 145.81 16.592C145.474 16.448 145.17 16.216 144.898 15.896C144.626 15.576 144.426 15.184 144.298 14.72C144.218 14.272 144.178 13.552 144.178 12.56V10.208V9.56V9.584C144.178 9.568 144.178 9.56 144.178 9.56V9.464C144.162 8.52 144.01 7.776 143.722 7.232C143.674 7.136 143.674 7.048 143.722 6.968C143.77 6.872 143.85 6.808 143.962 6.776C144.954 6.552 145.946 6.136 146.938 5.528C147.066 5.464 147.194 5.464 147.322 5.528C147.45 5.576 147.514 5.664 147.514 5.792V8.6V13.808C147.514 13.84 147.522 13.92 147.538 14.048C147.554 14.176 147.594 14.368 147.658 14.624C147.738 14.864 147.834 15.08 147.946 15.272C148.074 15.464 148.258 15.624 148.498 15.752C148.738 15.88 149.018 15.92 149.338 15.872C150.122 15.728 150.722 15.016 151.138 13.736V9.56V9.584C151.138 9.568 151.138 9.56 151.138 9.56V9.464C151.122 8.52 150.978 7.776 150.706 7.232C150.658 7.136 150.658 7.048 150.706 6.968C150.754 6.872 150.834 6.808 150.946 6.776C151.938 6.552 152.93 6.136 153.922 5.528C154.034 5.464 154.154 5.464 154.282 5.528C154.41 5.576 154.474 5.664 154.474 5.792V6.872L154.522 14.312C154.522 14.312 154.522 14.328 154.522 14.36C154.522 14.376 154.522 14.408 154.522 14.456C154.522 14.504 154.522 14.56 154.522 14.624C154.522 14.688 154.522 14.768 154.522 14.864C154.538 14.944 154.546 15.032 154.546 15.128C154.562 15.208 154.578 15.304 154.594 15.416C154.61 15.512 154.626 15.608 154.642 15.704C154.706 16.04 154.794 16.328 154.906 16.568ZM166.445 15.344C167.181 15.6 167.725 16.064 168.077 16.736C168.429 17.392 168.533 18.072 168.389 18.776C168.341 18.968 168.277 19.152 168.197 19.328C167.781 20.256 166.997 20.952 165.845 21.416C164.693 21.896 163.485 22.136 162.221 22.136C161.261 22.136 160.357 22 159.509 21.728C158.389 21.392 157.485 20.88 156.797 20.192C156.109 19.504 155.765 18.744 155.765 17.912C155.765 17.24 156.005 16.6 156.485 15.992C156.277 15.64 156.149 15.272 156.101 14.888C156.101 14.856 156.101 14.84 156.101 14.84C156.053 14.168 156.317 13.472 156.893 12.752C157.053 12.56 157.237 12.36 157.445 12.152C156.549 11.384 156.109 10.512 156.125 9.536C156.141 8.528 156.637 7.648 157.613 6.896C158.605 6.144 159.829 5.696 161.285 5.552C161.621 4.992 162.037 4.512 162.533 4.112C163.029 3.712 163.517 3.424 163.997 3.248C164.493 3.056 164.893 2.928 165.197 2.864C165.517 2.784 165.805 2.736 166.061 2.72C166.109 2.704 166.157 2.696 166.205 2.696H166.229C166.245 2.696 166.261 2.696 166.277 2.696C166.741 2.696 167.141 2.832 167.477 3.104C167.813 3.376 167.981 3.704 167.981 4.088C167.981 4.472 167.813 4.8 167.477 5.072C167.141 5.344 166.741 5.48 166.277 5.48C165.861 5.48 165.493 5.376 165.173 5.168C164.869 4.96 164.677 4.696 164.597 4.376C163.525 4.376 162.677 4.752 162.053 5.504C162.149 5.504 162.229 5.504 162.293 5.504C163.989 5.52 165.421 5.944 166.589 6.776C167.757 7.592 168.325 8.568 168.293 9.704C168.277 10.84 167.661 11.8 166.445 12.584C165.245 13.368 163.805 13.752 162.125 13.736C160.909 13.72 159.789 13.472 158.765 12.992C158.749 13.12 158.757 13.248 158.789 13.376C158.805 13.488 158.837 13.6 158.885 13.712C158.933 13.824 158.989 13.928 159.053 14.024C159.133 14.12 159.221 14.208 159.317 14.288C159.413 14.368 159.509 14.44 159.605 14.504C159.717 14.568 159.837 14.624 159.965 14.672C160.333 14.832 160.893 14.92 161.645 14.936C162.013 14.936 162.413 14.936 162.845 14.936C163.277 14.936 163.685 14.944 164.069 14.96C164.453 14.96 164.853 14.992 165.269 15.056C165.701 15.12 166.093 15.216 166.445 15.344ZM159.461 9.584C159.461 10 159.509 10.408 159.605 10.808C159.653 11.032 159.725 11.24 159.821 11.432C160.061 11.96 160.381 12.384 160.781 12.704C161.197 13.024 161.653 13.184 162.149 13.184C162.709 13.2 163.229 13 163.709 12.584C163.933 12.392 164.133 12.16 164.309 11.888C164.725 11.248 164.949 10.512 164.981 9.68C164.997 8.688 164.741 7.84 164.213 7.136C163.685 6.432 163.037 6.08 162.269 6.08C161.517 6.064 160.861 6.4 160.301 7.088C159.757 7.776 159.477 8.608 159.461 9.584ZM165.245 20.096C165.485 19.76 165.557 19.408 165.461 19.04C165.333 18.416 164.789 18.008 163.829 17.816C163.509 17.752 163.141 17.712 162.725 17.696C162.581 17.696 162.429 17.696 162.269 17.696C162.109 17.696 161.933 17.688 161.741 17.672C161.549 17.672 161.397 17.672 161.285 17.672C161.141 17.656 160.933 17.648 160.661 17.648C160.165 17.648 159.789 17.64 159.533 17.624C159.277 17.624 158.949 17.576 158.549 17.48C158.149 17.4 157.813 17.28 157.541 17.12C157.365 16.992 157.189 16.848 157.013 16.688C156.997 16.704 156.981 16.736 156.965 16.784C156.629 17.232 156.541 17.736 156.701 18.296C156.893 19.016 157.301 19.624 157.925 20.12C158.549 20.616 159.253 20.96 160.037 21.152C160.837 21.344 161.637 21.384 162.437 21.272C163.909 21.096 164.845 20.704 165.245 20.096ZM179.64 15.344C180.376 15.6 180.92 16.064 181.272 16.736C181.624 17.392 181.728 18.072 181.584 18.776C181.536 18.968 181.472 19.152 181.392 19.328C180.976 20.256 180.192 20.952 179.04 21.416C177.888 21.896 176.68 22.136 175.416 22.136C174.456 22.136 173.552 22 172.704 21.728C171.584 21.392 170.68 20.88 169.992 20.192C169.304 19.504 168.96 18.744 168.96 17.912C168.96 17.24 169.2 16.6 169.68 15.992C169.472 15.64 169.344 15.272 169.296 14.888C169.296 14.856 169.296 14.84 169.296 14.84C169.248 14.168 169.512 13.472 170.088 12.752C170.248 12.56 170.432 12.36 170.64 12.152C169.744 11.384 169.304 10.512 169.32 9.536C169.336 8.528 169.832 7.648 170.808 6.896C171.8 6.144 173.024 5.696 174.48 5.552C174.816 4.992 175.232 4.512 175.728 4.112C176.224 3.712 176.712 3.424 177.192 3.248C177.688 3.056 178.088 2.928 178.392 2.864C178.712 2.784 179 2.736 179.256 2.72C179.304 2.704 179.352 2.696 179.4 2.696H179.424C179.44 2.696 179.456 2.696 179.472 2.696C179.936 2.696 180.336 2.832 180.672 3.104C181.008 3.376 181.176 3.704 181.176 4.088C181.176 4.472 181.008 4.8 180.672 5.072C180.336 5.344 179.936 5.48 179.472 5.48C179.056 5.48 178.688 5.376 178.368 5.168C178.064 4.96 177.872 4.696 177.792 4.376C176.72 4.376 175.872 4.752 175.248 5.504C175.344 5.504 175.424 5.504 175.488 5.504C177.184 5.52 178.616 5.944 179.784 6.776C180.952 7.592 181.52 8.568 181.488 9.704C181.472 10.84 180.856 11.8 179.64 12.584C178.44 13.368 177 13.752 175.32 13.736C174.104 13.72 172.984 13.472 171.96 12.992C171.944 13.12 171.952 13.248 171.984 13.376C172 13.488 172.032 13.6 172.08 13.712C172.128 13.824 172.184 13.928 172.248 14.024C172.328 14.12 172.416 14.208 172.512 14.288C172.608 14.368 172.704 14.44 172.8 14.504C172.912 14.568 173.032 14.624 173.16 14.672C173.528 14.832 174.088 14.92 174.84 14.936C175.208 14.936 175.608 14.936 176.04 14.936C176.472 14.936 176.88 14.944 177.264 14.96C177.648 14.96 178.048 14.992 178.464 15.056C178.896 15.12 179.288 15.216 179.64 15.344ZM172.656 9.584C172.656 10 172.704 10.408 172.8 10.808C172.848 11.032 172.92 11.24 173.016 11.432C173.256 11.96 173.576 12.384 173.976 12.704C174.392 13.024 174.848 13.184 175.344 13.184C175.904 13.2 176.424 13 176.904 12.584C177.128 12.392 177.328 12.16 177.504 11.888C177.92 11.248 178.144 10.512 178.176 9.68C178.192 8.688 177.936 7.84 177.408 7.136C176.88 6.432 176.232 6.08 175.464 6.08C174.712 6.064 174.056 6.4 173.496 7.088C172.952 7.776 172.672 8.608 172.656 9.584ZM178.44 20.096C178.68 19.76 178.752 19.408 178.656 19.04C178.528 18.416 177.984 18.008 177.024 17.816C176.704 17.752 176.336 17.712 175.92 17.696C175.776 17.696 175.624 17.696 175.464 17.696C175.304 17.696 175.128 17.688 174.936 17.672C174.744 17.672 174.592 17.672 174.48 17.672C174.336 17.656 174.128 17.648 173.856 17.648C173.36 17.648 172.984 17.64 172.728 17.624C172.472 17.624 172.144 17.576 171.744 17.48C171.344 17.4 171.008 17.28 170.736 17.12C170.56 16.992 170.384 16.848 170.208 16.688C170.192 16.704 170.176 16.736 170.16 16.784C169.824 17.232 169.736 17.736 169.896 18.296C170.088 19.016 170.496 19.624 171.12 20.12C171.744 20.616 172.448 20.96 173.232 21.152C174.032 21.344 174.832 21.384 175.632 21.272C177.104 21.096 178.04 20.704 178.44 20.096ZM191.515 9.8C190.875 11.272 188.851 11.92 185.443 11.744C185.523 12.912 185.891 13.896 186.547 14.696C187.203 15.496 187.979 15.896 188.875 15.896C189.611 15.896 190.283 15.608 190.891 15.032C190.907 15 190.931 14.984 190.963 14.984H191.419C191.467 14.984 191.499 15.008 191.515 15.056C191.531 15.088 191.523 15.112 191.491 15.128C190.435 16.36 189.131 16.976 187.579 16.976C186.107 16.976 184.851 16.416 183.811 15.296C182.771 14.176 182.251 12.824 182.251 11.24C182.251 9.656 182.771 8.304 183.811 7.184C184.851 6.048 186.107 5.48 187.579 5.48C188.667 5.48 189.587 5.768 190.339 6.344C190.531 6.472 190.699 6.616 190.843 6.776C191.227 7.192 191.483 7.672 191.611 8.216C191.755 8.744 191.723 9.272 191.515 9.8ZM185.419 11.144C185.451 11.16 185.499 11.168 185.563 11.168C185.643 11.168 185.787 11.168 185.995 11.168C186.203 11.168 186.403 11.16 186.595 11.144C186.803 11.128 187.043 11.096 187.315 11.048C187.587 10.984 187.835 10.904 188.059 10.808C188.283 10.712 188.507 10.584 188.731 10.424C188.971 10.264 189.163 10.08 189.307 9.872C189.451 9.648 189.563 9.384 189.643 9.08C189.723 8.76 189.739 8.408 189.691 8.024V8C189.643 7.472 189.419 7.096 189.019 6.872C188.619 6.632 188.171 6.632 187.675 6.872C187.019 7.192 186.483 7.744 186.067 8.528C185.651 9.312 185.435 10.184 185.419 11.144ZM200.702 15.416C200.702 15.464 200.686 15.512 200.654 15.56C200.254 16.296 199.598 16.752 198.686 16.928C198.254 16.992 197.822 17.008 197.39 16.976C196.702 16.928 196.054 16.736 195.446 16.4C194.854 16.048 194.382 15.552 194.03 14.912C193.87 14.624 193.742 14.32 193.646 14C193.598 13.856 193.55 13.584 193.502 13.184C193.422 12.752 193.374 12.304 193.358 11.84V8.192C193.358 8.176 193.358 8.168 193.358 8.168V8.096V6.992H192.542C192.494 6.992 192.446 6.984 192.398 6.968C192.35 6.936 192.31 6.904 192.278 6.872C192.262 6.824 192.254 6.776 192.254 6.728V6.488C192.254 6.328 192.342 6.24 192.518 6.224C192.822 6.224 193.102 6.192 193.358 6.128C193.854 6.032 194.286 5.864 194.654 5.624C195.022 5.368 195.286 5.128 195.446 4.904C195.606 4.664 195.766 4.464 195.926 4.304C196.102 4.128 196.262 4.056 196.406 4.088C196.598 4.12 196.694 4.224 196.694 4.4V6.224H197.606C197.766 6.224 197.846 6.296 197.846 6.44V6.776C197.846 6.92 197.766 6.992 197.606 6.992H196.694V12.296V12.32C196.694 12.368 196.694 12.432 196.694 12.512C196.694 12.576 196.694 12.656 196.694 12.752C196.694 12.832 196.694 12.888 196.694 12.92C196.694 13.096 196.702 13.312 196.718 13.568C196.894 15.104 197.422 15.888 198.302 15.92C198.494 15.92 198.686 15.896 198.878 15.848C199.054 15.816 199.254 15.752 199.478 15.656C199.702 15.544 199.886 15.44 200.03 15.344L200.222 15.224C200.334 15.176 200.43 15.176 200.51 15.224C200.606 15.256 200.67 15.32 200.702 15.416Z" fill="black"/>
</svg>
